<svg xmlns="http://www.w3.org/2000/svg" viewBox="0 0 241.26 228.63"><defs><style>.cls-1{fill:#077183}.cls-2{fill:#fff}</style></defs><title>2</title><g id="Layer_2" data-name="Layer 2"><g id="Layer_1-2" data-name="Layer 1"><path id="_Rectangle_" data-name="&amp;lt;Rectangle&amp;gt;" class="cls-1" d="M0 0h241.26v228.63H0z"/><path class="cls-2" d="M79 75.06v10.59H40.59l-.07-8.71 18.36-18.87a26 26 0 0 0 3.53-4.46 7.69 7.69 0 0 0 1.37-3.82 3.74 3.74 0 0 0-1.51-3.2A7 7 0 0 0 58 45.47a16.43 16.43 0 0 0-6.73 1.69 29.51 29.51 0 0 0-7.16 4.72l-5-9.72Q49.52 34.6 60 34.6a23.43 23.43 0 0 1 9 1.66 14.61 14.61 0 0 1 6.26 4.68 11.22 11.22 0 0 1 2.27 6.91 15.29 15.29 0 0 1-2.56 8 49.94 49.94 0 0 1-7.24 8.82L57.51 75.06z" id="_Group_" data-name="&amp;lt;Group&amp;gt;"/><path class="cls-2" d="M52.49 118.94h4.9v8.65a14.49 14.49 0 0 1-4.26 2.06 16 16 0 0 1-4.79.79A12 12 0 0 1 42.4 129a10.88 10.88 0 0 1-4.17-4 11.12 11.12 0 0 1-1.52-5.77 10.74 10.74 0 0 1 1.57-5.72 11 11 0 0 1 4.31-4 12.85 12.85 0 0 1 6.12-1.51 14 14 0 0 1 4.84.88 12.57 12.57 0 0 1 4.09 2.37l-3.22 4a9.05 9.05 0 0 0-2.71-1.77 7.71 7.71 0 0 0-3-.65 6 6 0 0 0-5.33 3.13 6.61 6.61 0 0 0-.81 3.26 6.76 6.76 0 0 0 .81 3.3 5.92 5.92 0 0 0 2.23 2.31 6.13 6.13 0 0 0 3.16.84 8.58 8.58 0 0 0 3.75-1.05zm22.32-3.44a9.49 9.49 0 0 1 2.2 6.63v1H65.32a4 4 0 0 0 1.4 2.19 3.86 3.86 0 0 0 2.42.76 5.24 5.24 0 0 0 2.09-.43 5.92 5.92 0 0 0 1.84-1.27l2.93 2.87a8.49 8.49 0 0 1-3.15 2.22 10.85 10.85 0 0 1-4.17.76 10 10 0 0 1-4.71-1.05 7.32 7.32 0 0 1-3.08-3 9 9 0 0 1-1.07-4.46 9.25 9.25 0 0 1 1.08-4.54 7.5 7.5 0 0 1 3.07-3 9.52 9.52 0 0 1 4.59-1.07 8.08 8.08 0 0 1 6.25 2.39zm-3.16 4.68a3.23 3.23 0 0 0-.85-2.34 3.24 3.24 0 0 0-4.43 0 4.32 4.32 0 0 0-1.16 2.36zm19.09 8.99a8.28 8.28 0 0 1-2.14.82 10.31 10.31 0 0 1-2.45.29 5.66 5.66 0 0 1-4-1.43 5.11 5.11 0 0 1-1.53-3.94v-7.19h-2.34v-3.66h2.32v-4.65h5.49v4.65h4.34v3.66h-4.34v6.32q0 1.77 1.46 1.77a5.38 5.38 0 0 0 2.14-.56zm22.48-14.53a5.59 5.59 0 0 1 2 4.48V130h-5.42v-1.89a6 6 0 0 1-5.05 2.14 5.89 5.89 0 0 1-4.2-1.44A5 5 0 0 1 99 125a4.51 4.51 0 0 1 1.66-3.72 7.57 7.57 0 0 1 4.76-1.36h4.37v-.19a2.24 2.24 0 0 0-.82-1.86 3.75 3.75 0 0 0-2.37-.65 9.58 9.58 0 0 0-2.37.34 14.13 14.13 0 0 0-2.65 1l-1.58-3.68a21.83 21.83 0 0 1 3.92-1.38 16.65 16.65 0 0 1 3.89-.45 8.21 8.21 0 0 1 5.41 1.59zm-4.65 11.28a2.62 2.62 0 0 0 1.18-1.57v-1.46h-3.29q-2.33 0-2.33 1.74a1.71 1.71 0 0 0 .6 1.38 2.49 2.49 0 0 0 1.66.51 3.89 3.89 0 0 0 2.18-.59zm-62.93 28.92a3 3 0 0 0-2.42 1.16 5.1 5.1 0 0 0 0 5.87 3 3 0 0 0 2.42 1.13 3.42 3.42 0 0 0 3.29-1.89l4.07 2.28a6.9 6.9 0 0 1-3 3 9.77 9.77 0 0 1-4.65 1.05 9.38 9.38 0 0 1-4.53-1.05 7.41 7.41 0 0 1-3-3 9 9 0 0 1-1.07-4.46 9.25 9.25 0 0 1 1.08-4.54 7.52 7.52 0 0 1 3.05-3 10.15 10.15 0 0 1 9 0 7.48 7.48 0 0 1 3 2.93l-4 2.32a3.75 3.75 0 0 0-3.24-1.8zm22.57-2.99a5.59 5.59 0 0 1 2 4.48v10.91h-5.47v-1.89a6 6 0 0 1-5.05 2.14 5.89 5.89 0 0 1-4.2-1.44 5 5 0 0 1-1.53-3.8 4.51 4.51 0 0 1 1.66-3.72 7.57 7.57 0 0 1 4.76-1.36h4.37V157a2.24 2.24 0 0 0-.82-1.86 3.75 3.75 0 0 0-2.37-.65 9.58 9.58 0 0 0-2.37.34 14.13 14.13 0 0 0-2.65 1L55 152.08a21.83 21.83 0 0 1 3.92-1.38 16.65 16.65 0 0 1 3.89-.45 8.21 8.21 0 0 1 5.4 1.6zm-4.65 11.28a2.62 2.62 0 0 0 1.18-1.57v-1.46h-3.29q-2.33 0-2.33 1.74a1.71 1.71 0 0 0 .6 1.38 2.49 2.49 0 0 0 1.66.51 3.89 3.89 0 0 0 2.18-.6zM81.65 151a6.31 6.31 0 0 1 3.15-.77v5.05a8.33 8.33 0 0 0-.84 0 5.11 5.11 0 0 0-3.16.91 3.51 3.51 0 0 0-1.4 2.5v8.56h-5.52v-16.78h5.52v2.79a6 6 0 0 1 2.25-2.26zm19.23 1.7a9.49 9.49 0 0 1 2.2 6.63v1H91.4a4 4 0 0 0 1.4 2.19 3.86 3.86 0 0 0 2.42.76 5.24 5.24 0 0 0 2.09-.43 5.92 5.92 0 0 0 1.84-1.27l2.88 2.88a8.49 8.49 0 0 1-3.15 2.22 10.85 10.85 0 0 1-4.17.76 10 10 0 0 1-4.71-1.07 7.32 7.32 0 0 1-3.08-3 9 9 0 0 1-1.07-4.46 9.25 9.25 0 0 1 1.08-4.54 7.5 7.5 0 0 1 3.07-3 9.52 9.52 0 0 1 4.59-1.07 8.08 8.08 0 0 1 6.29 2.4zm-3.16 4.68a3.23 3.23 0 0 0-.85-2.34 3.24 3.24 0 0 0-4.43 0 4.32 4.32 0 0 0-1.16 2.36zm21.85-4.68a9.49 9.49 0 0 1 2.2 6.63v1h-11.68a4 4 0 0 0 1.4 2.19 3.86 3.86 0 0 0 2.42.76 5.24 5.24 0 0 0 2.09-.43 5.92 5.92 0 0 0 1.84-1.27l2.88 2.88a8.49 8.49 0 0 1-3.15 2.22 10.85 10.85 0 0 1-4.17.76 10 10 0 0 1-4.71-1.05 7.32 7.32 0 0 1-3.08-3 9 9 0 0 1-1.07-4.46 9.25 9.25 0 0 1 1.08-4.54 7.5 7.5 0 0 1 3.07-3 9.52 9.52 0 0 1 4.59-1.07 8.08 8.08 0 0 1 6.29 2.38zm-3.16 4.68a3.23 3.23 0 0 0-.85-2.34 3.24 3.24 0 0 0-4.43 0 4.32 4.32 0 0 0-1.16 2.36zm15.95-6.38a6.31 6.31 0 0 1 3.15-.77v5.05a8.32 8.32 0 0 0-.84 0 5.1 5.1 0 0 0-3.16.91 3.5 3.5 0 0 0-1.4 2.5v8.56h-5.51v-16.78h5.52v2.79a6 6 0 0 1 2.24-2.26zm27.14.35a7.2 7.2 0 0 1 2.74 3 10.1 10.1 0 0 1 1 4.54 10 10 0 0 1-.95 4.46 7 7 0 0 1-2.7 3 7.69 7.69 0 0 1-4 1.05 6.66 6.66 0 0 1-2.87-.6 6 6 0 0 1-2.19-1.75v8.18H145v-22.76h5.52v2.17a5.91 5.91 0 0 1 4.93-2.36 7.75 7.75 0 0 1 4.05 1.07zm-2.84 10.46a4.39 4.39 0 0 0 1-3 4.45 4.45 0 0 0-1-3 3.31 3.31 0 0 0-2.62-1.16 3.22 3.22 0 0 0-2.57 1.16 4.49 4.49 0 0 0-1 3 4.43 4.43 0 0 0 1 3A3.24 3.24 0 0 0 154 163a3.32 3.32 0 0 0 2.66-1.19zm9.57-17.58h5.52v23h-5.52zm22.84 7.62a5.58 5.58 0 0 1 2 4.48v10.91h-5.47v-1.89a6 6 0 0 1-5.05 2.14 5.89 5.89 0 0 1-4.2-1.44 5 5 0 0 1-1.54-3.8 4.5 4.5 0 0 1 1.66-3.72 7.56 7.56 0 0 1 4.76-1.36h4.37V157a2.23 2.23 0 0 0-.82-1.86 3.75 3.75 0 0 0-2.37-.65 9.58 9.58 0 0 0-2.37.34 14.11 14.11 0 0 0-2.65 1l-1.52-3.72a21.82 21.82 0 0 1 3.92-1.38 16.65 16.65 0 0 1 3.89-.45 8.22 8.22 0 0 1 5.39 1.57zm-4.65 11.28a2.62 2.62 0 0 0 1.18-1.57v-1.46h-3.29q-2.32 0-2.32 1.74a1.71 1.71 0 0 0 .6 1.38 2.48 2.48 0 0 0 1.66.51 3.89 3.89 0 0 0 2.17-.6zM210.23 152a6.5 6.5 0 0 1 1.66 4.68v10.57h-5.49v-9a3.15 3.15 0 0 0-.77-2.25 2.72 2.72 0 0 0-2.08-.82 3.19 3.19 0 0 0-2.25.9 3.66 3.66 0 0 0-1 2.29v8.87h-5.52v-16.77h5.52v2.73a6 6 0 0 1 2.31-2.2 6.84 6.84 0 0 1 3.24-.74 5.83 5.83 0 0 1 4.38 1.74z" id="_Group_2" data-name="&amp;lt;Group&amp;gt;"/></g></g></svg>