<svg xmlns="http://www.w3.org/2000/svg" viewBox="0 0 241.26 228.63"><defs><style>.cls-1{fill:#094f5e}.cls-2{fill:#fff}</style></defs><title>3</title><g id="Layer_2" data-name="Layer 2"><g id="Layer_1-2" data-name="Layer 1"><path id="_Rectangle_" data-name="&amp;lt;Rectangle&amp;gt;" class="cls-1" d="M0 0h241.26v228.63H0z"/><path class="cls-2" d="M69.86 60.41a12.5 12.5 0 0 1 3.71 9.32 15 15 0 0 1-2.52 8.57 16.6 16.6 0 0 1-7.13 5.83 25.94 25.94 0 0 1-10.8 2.09 36.07 36.07 0 0 1-10.91-1.69 29.17 29.17 0 0 1-9-4.5l4.9-9.29a23.37 23.37 0 0 0 6.77 4 20.13 20.13 0 0 0 7.12 1.4 10.8 10.8 0 0 0 6.41-1.62 5.39 5.39 0 0 0 2.23-4.64 5.3 5.3 0 0 0-2.23-4.61A11.14 11.14 0 0 0 52 63.69h-8.5v-7.2l11.64-11.23h-19.3V35.18h35.28v7.63l-13.75 12.6 2.66.5a17 17 0 0 1 9.83 4.5z" id="_Group_" data-name="&amp;lt;Group&amp;gt;"/><path class="cls-2" d="M45.48 130l-3.16-6h-4.21v6h-5.68v-21.69h9.77a10.07 10.07 0 0 1 6.68 2 7 7 0 0 1 2.37 5.63 8.57 8.57 0 0 1-1 4.23 6.85 6.85 0 0 1-2.88 2.77L51.9 130zm-7.37-10.5h4.12a3.82 3.82 0 0 0 2.68-.87 3.24 3.24 0 0 0 .95-2.51 3.11 3.11 0 0 0-.95-2.43 3.87 3.87 0 0 0-2.68-.85h-4.12zm30.44-4a9.49 9.49 0 0 1 2.2 6.63v1H59.06a4 4 0 0 0 1.4 2.19 3.86 3.86 0 0 0 2.42.76 5.23 5.23 0 0 0 2.09-.43 5.91 5.91 0 0 0 1.84-1.27l2.88 2.88a8.49 8.49 0 0 1-3.15 2.22 10.85 10.85 0 0 1-4.17.76 10 10 0 0 1-4.71-1.05 7.32 7.32 0 0 1-3.08-3 9 9 0 0 1-1.07-4.46 9.25 9.25 0 0 1 1.08-4.54 7.49 7.49 0 0 1 3.07-3 9.52 9.52 0 0 1 4.59-1.07 8.08 8.08 0 0 1 6.3 2.38zm-3.16 4.68a3.23 3.23 0 0 0-.85-2.34 3.24 3.24 0 0 0-4.43 0 4.32 4.32 0 0 0-1.16 2.36zm14.04-3.32a2.19 2.19 0 0 0-1.15.26.86.86 0 0 0-.43.79 1 1 0 0 0 .68.9 12.53 12.53 0 0 0 2.17.74 27.23 27.23 0 0 1 3 1 5.48 5.48 0 0 1 2.06 1.55 4.09 4.09 0 0 1 .87 2.71 4.66 4.66 0 0 1-2 4 8.48 8.48 0 0 1-5.13 1.44 13.76 13.76 0 0 1-4.09-.6A10.83 10.83 0 0 1 72 127.9l1.74-3.56a12.21 12.21 0 0 0 3 1.53 9 9 0 0 0 3 .54 2.68 2.68 0 0 0 1.29-.26.83.83 0 0 0 .48-.76 1.05 1.05 0 0 0-.7-1 13.31 13.31 0 0 0-2.19-.74 24.4 24.4 0 0 1-2.91-1 5.5 5.5 0 0 1-2-1.53 4 4 0 0 1-.85-2.67 4.7 4.7 0 0 1 1.92-4 8 8 0 0 1 5-1.44 13.47 13.47 0 0 1 7 2l-1.86 3.6a12.29 12.29 0 0 0-5.49-1.75zm23.84-1.36a9.49 9.49 0 0 1 2.2 6.63v1H93.78a4 4 0 0 0 1.4 2.19 3.86 3.86 0 0 0 2.42.76 5.23 5.23 0 0 0 2.09-.43 5.91 5.91 0 0 0 1.84-1.27l2.88 2.88a8.49 8.49 0 0 1-3.15 2.22 10.85 10.85 0 0 1-4.17.76 10 10 0 0 1-4.71-1.05 7.32 7.32 0 0 1-3.08-3 9 9 0 0 1-1.07-4.46 9.25 9.25 0 0 1 1.08-4.54 7.49 7.49 0 0 1 3.07-3 9.52 9.52 0 0 1 4.62-1.11 8.08 8.08 0 0 1 6.27 2.42zm-3.16 4.68a3.23 3.23 0 0 0-.85-2.34 3.24 3.24 0 0 0-4.43 0 4.32 4.32 0 0 0-1.16 2.36zm21.14-5.54a5.58 5.58 0 0 1 2 4.48V130h-5.42v-1.89a6 6 0 0 1-5.05 2.14 5.89 5.89 0 0 1-4.2-1.44A5 5 0 0 1 107 125a4.5 4.5 0 0 1 1.66-3.72 7.56 7.56 0 0 1 4.74-1.28h4.37v-.19a2.23 2.23 0 0 0-.82-1.86 3.75 3.75 0 0 0-2.37-.65 9.58 9.58 0 0 0-2.37.34 14.11 14.11 0 0 0-2.65 1l-1.56-3.76a21.82 21.82 0 0 1 4-1.38 16.65 16.65 0 0 1 3.89-.45 8.22 8.22 0 0 1 5.36 1.59zm-4.65 11.28a2.62 2.62 0 0 0 1.18-1.57v-1.46h-3.29q-2.32 0-2.32 1.74a1.71 1.71 0 0 0 .6 1.38 2.48 2.48 0 0 0 1.66.51 3.89 3.89 0 0 0 2.17-.59zm18.08-12.1a6.31 6.31 0 0 1 3.15-.77v5.05a8.32 8.32 0 0 0-.84 0 5.1 5.1 0 0 0-3.16.91 3.5 3.5 0 0 0-1.4 2.5V130h-5.52v-16.73h5.52v2.79a6 6 0 0 1 2.25-2.24zm13.1 3.82a3 3 0 0 0-2.42 1.13 5.1 5.1 0 0 0 0 5.87 3 3 0 0 0 2.42 1.12 3.43 3.43 0 0 0 3.29-1.89l4.06 2.32a6.9 6.9 0 0 1-3 3 9.76 9.76 0 0 1-4.65 1.05 9.38 9.38 0 0 1-4.53-1.05 7.41 7.41 0 0 1-3-3 9 9 0 0 1-1.07-4.46 9.25 9.25 0 0 1 1.08-4.54 7.52 7.52 0 0 1 3.05-3 10.14 10.14 0 0 1 9 0 7.47 7.47 0 0 1 3 2.93l-4 2.32a3.75 3.75 0 0 0-3.23-1.8zm25.56-2.86a6.5 6.5 0 0 1 1.66 4.68V130h-5.52v-9a3.18 3.18 0 0 0-.76-2.25 2.71 2.71 0 0 0-2.09-.82 3.08 3.08 0 0 0-2.4 1.07 4 4 0 0 0-.88 2.71V130h-5.52v-23h5.52v9a6 6 0 0 1 2.31-2.2 6.83 6.83 0 0 1 3.24-.74 5.86 5.86 0 0 1 4.44 1.72zM38.91 172.37a6.79 6.79 0 0 1-4 1.13 7.9 7.9 0 0 1-2.6-.42 8.14 8.14 0 0 1-2.31-1.32l2.29-3.81a4.34 4.34 0 0 0 1.12.71 2.9 2.9 0 0 0 1.12.22 2.13 2.13 0 0 0 2-1.27l.4-.77L30 150.47h5.67l4 10.91 3.57-10.91h5.49l-7.19 18.41a7.63 7.63 0 0 1-2.63 3.49zm23.69-21.02a7.82 7.82 0 0 1 3.22 3 9.38 9.38 0 0 1 0 9 7.82 7.82 0 0 1-3.22 3 11.33 11.33 0 0 1-9.61 0 7.71 7.71 0 0 1-3.21-3 9.49 9.49 0 0 1 0-9 7.71 7.71 0 0 1 3.21-3 11.33 11.33 0 0 1 9.61 0zm-7.41 4.54a4.43 4.43 0 0 0-1 3 4.48 4.48 0 0 0 1 3 3.28 3.28 0 0 0 2.6 1.15 3.31 3.31 0 0 0 2.64-1.15 4.48 4.48 0 0 0 1-3 4.39 4.39 0 0 0-1-3 3.33 3.33 0 0 0-2.62-1.15 3.28 3.28 0 0 0-2.62 1.15zm30.96-5.42v16.77h-5.51v-2.73a5.89 5.89 0 0 1-5.36 3 5.66 5.66 0 0 1-4.36-1.75 6.58 6.58 0 0 1-1.63-4.67v-10.6h5.52v9a3.21 3.21 0 0 0 .73 2.23 2.52 2.52 0 0 0 2 .81 2.87 2.87 0 0 0 2.29-1.07 4.19 4.19 0 0 0 .84-2.71v-8.28zm11.99.53a6.31 6.31 0 0 1 3.15-.77v5.05a8.32 8.32 0 0 0-.84 0 5.1 5.1 0 0 0-3.16.91 3.5 3.5 0 0 0-1.4 2.5v8.56h-5.52v-16.78h5.52v2.79a6 6 0 0 1 2.25-2.26zm25.03.35a7.82 7.82 0 0 1 3.22 3 9.38 9.38 0 0 1 0 9 7.82 7.82 0 0 1-3.22 3 11.33 11.33 0 0 1-9.61 0 7.71 7.71 0 0 1-3.21-3 9.49 9.49 0 0 1 0-9 7.71 7.71 0 0 1 3.21-3 11.33 11.33 0 0 1 9.61 0zm-7.41 4.54a4.43 4.43 0 0 0-1 3 4.48 4.48 0 0 0 1 3 3.28 3.28 0 0 0 2.6 1.15 3.31 3.31 0 0 0 2.64-1.15 4.48 4.48 0 0 0 1-3 4.39 4.39 0 0 0-1-3 3.33 3.33 0 0 0-2.62-1.15 3.28 3.28 0 0 0-2.62 1.15zm29.29-4.54a7.2 7.2 0 0 1 2.74 3 10.1 10.1 0 0 1 1 4.54 10 10 0 0 1-.95 4.46 7 7 0 0 1-2.7 3 7.69 7.69 0 0 1-4 1.05 6.66 6.66 0 0 1-2.87-.6 6 6 0 0 1-2.19-1.75v8.18h-5.52v-22.76H136v2.17a5.91 5.91 0 0 1 4.93-2.36 7.75 7.75 0 0 1 4.12 1.07zm-2.84 10.46a4.39 4.39 0 0 0 1-3 4.45 4.45 0 0 0-1-3 3.31 3.31 0 0 0-2.62-1.16 3.22 3.22 0 0 0-2.57 1.16 4.49 4.49 0 0 0-1 3 4.43 4.43 0 0 0 1 3 3.24 3.24 0 0 0 2.58 1.19 3.32 3.32 0 0 0 2.62-1.19zm20.33 4.56a8.27 8.27 0 0 1-2.14.82 10.31 10.31 0 0 1-2.45.29 5.66 5.66 0 0 1-4-1.43 5.11 5.11 0 0 1-1.54-3.94v-7.19h-2.33v-3.66h2.33v-4.65h5.49v4.65h4.34v3.66h-4.34v6.32q0 1.77 1.46 1.77a5.38 5.38 0 0 0 2.14-.56zm7.46-22.8a3.14 3.14 0 0 1 0 4.23 3 3 0 0 1-4.18 0 3.13 3.13 0 0 1 0-4.23 3.07 3.07 0 0 1 4.18 0zm-4.79 6.9h5.49v16.77h-5.49zm22.25.88a7.82 7.82 0 0 1 3.22 3 9.38 9.38 0 0 1 0 9 7.82 7.82 0 0 1-3.22 3 11.33 11.33 0 0 1-9.61 0 7.71 7.71 0 0 1-3.21-3 9.49 9.49 0 0 1 0-9 7.71 7.71 0 0 1 3.21-3 11.33 11.33 0 0 1 9.61 0zm-7.41 4.54a4.43 4.43 0 0 0-1 3 4.48 4.48 0 0 0 1 3 3.28 3.28 0 0 0 2.6 1.15 3.31 3.31 0 0 0 2.64-1.15 4.48 4.48 0 0 0 1-3 4.39 4.39 0 0 0-1-3 3.33 3.33 0 0 0-2.62-1.15 3.28 3.28 0 0 0-2.62 1.15zm30.09-3.89a6.5 6.5 0 0 1 1.66 4.68v10.57h-5.49v-9a3.15 3.15 0 0 0-.77-2.25 2.72 2.72 0 0 0-2.08-.82 3.19 3.19 0 0 0-2.25.9 3.66 3.66 0 0 0-1 2.29v8.87h-5.52v-16.77h5.52v2.73a6 6 0 0 1 2.31-2.2 6.84 6.84 0 0 1 3.24-.74 5.83 5.83 0 0 1 4.38 1.74z" id="_Group_2" data-name="&amp;lt;Group&amp;gt;"/></g></g></svg>