<svg xmlns="http://www.w3.org/2000/svg" viewBox="0 0 241.26 228.63"><defs><style>.cls-1{fill:#094f5e}.cls-2{fill:#fff}</style></defs><title>3CH</title><g id="Layer_2" data-name="Layer 2"><g id="Layer_1-2" data-name="Layer 1"><path id="_Rectangle_" data-name="&amp;lt;Rectangle&amp;gt;" class="cls-1" d="M0 0h241.26v228.63H0z"/><path class="cls-2" d="M69.86 60.41a12.5 12.5 0 0 1 3.71 9.32 15 15 0 0 1-2.52 8.57 16.6 16.6 0 0 1-7.13 5.83 25.94 25.94 0 0 1-10.8 2.09 36.07 36.07 0 0 1-10.91-1.69 29.17 29.17 0 0 1-9-4.5l4.9-9.29a23.37 23.37 0 0 0 6.77 4 20.13 20.13 0 0 0 7.12 1.4 10.8 10.8 0 0 0 6.41-1.62 5.39 5.39 0 0 0 2.23-4.64 5.3 5.3 0 0 0-2.23-4.61A11.14 11.14 0 0 0 52 63.69h-8.5v-7.2l11.64-11.23h-19.3V35.18h35.28v7.63l-13.75 12.6 2.66.5a17 17 0 0 1 9.83 4.5z" id="_Group_" data-name="&amp;lt;Group&amp;gt;"/><path class="cls-2" d="M43.25 108.53h-4.43a36 36 0 0 1-1.63 5.95h5.27v14.64H40v-2.42h-2.88v3h-2.33v-10.76q-.76 1.18-1.48 2.16l-1.86-1.6q4.18-5.81 4.83-11h-4v-2.15h11zm-3 16.21v-8.34h-3.39v8.34zM60 118.56h-4.5v13.61h-2.39v-13.61h-4.27a22.46 22.46 0 0 1-1 7.49 20.89 20.89 0 0 1-4.18 6.18l-1.92-1.54a15.29 15.29 0 0 0 3.75-5.12 16.85 16.85 0 0 0 .92-7h-3.5v-2.13h3.5V108h-2.6v-2.13H59V108h-3.53v8.43H60zm-6.86-2.13V108h-4.3v8.43zM91 125.66l-.53 2.89a4.35 4.35 0 0 1-1 2 2.12 2.12 0 0 1-1.52.85H83.8a2.53 2.53 0 0 1-2-.82 3.27 3.27 0 0 1-.71-2.23q0-1.18.57-6.54h-6a10.22 10.22 0 0 1-2.82 6.19q-2.32 2.27-9 3.41l-1.06-2.26q6-.7 8-2.48a7.72 7.72 0 0 0 2.43-4.85h-7.57v-2.26h7.87a21 21 0 0 0 .33-4.25l2.51.26a19.42 19.42 0 0 1-.39 4h8.46a66.12 66.12 0 0 0-1 8.87q0 .83.94.83h2.35a1.45 1.45 0 0 0 .88-.29 1.48 1.48 0 0 0 .51-1l.53-3.24zM74.66 112a19.84 19.84 0 0 1-9.52 6.86l-1.45-2.21a17.49 17.49 0 0 0 8.86-6zm14.56 1.89H86.8v-3.72H66.85V114h-2.39v-6.1h11.18v-3.35H78v3.35h11.22zm.5 1.3q-.58 2.48-2.54 2.48h-5.8q-2.17 0-2.17-2.3v-4.44h2.32v3.72q0 .74.82.74h4.21q.76 0 1-1.42zm13.11-10.11a44.68 44.68 0 0 1-1.54 4.65l-1.09 2.86v19.72h-2.49v-16.09a12.56 12.56 0 0 1-2.54 3.15l-2.35-1.2q4.92-4.15 7.72-14zm18.17 4.34a31.94 31.94 0 0 1-2.19 7l-2.17-.86a35.2 35.2 0 0 0 1.33-3.75h-5v17.17a2.91 2.91 0 0 1-.54 1.62 3.27 3.27 0 0 1-1.16 1.14 4.83 4.83 0 0 1-2.07.32q-.71 0-2-.09l-.74-2.27h2.88a1 1 0 0 0 1.18-1.17v-16.75h-3.62a22 22 0 0 1-3.69 6.07l-2.45-.89a24 24 0 0 0 5.52-12.71l2.41.53a32 32 0 0 1-1 4.65zm-11.93 8.22q-2.1 6.24-6.12 9.08l-1.95-1.59a16.21 16.21 0 0 0 5.87-8.52zm12.74 8.36l-2.18 1.3q-2.15-6.21-5.45-9.05l2-1.27a21.42 21.42 0 0 1 5.63 9.02zm28.85-16.7q-.12 12.53-1.2 17.48t-3.82 4.94a22.13 22.13 0 0 1-4.83-1l-.41-2.6a17 17 0 0 0 4.87 1.3q1.33 0 2.16-4.88a85.8 85.8 0 0 0 .88-13.07h-6.61a25.5 25.5 0 0 1-3.59 6.51l-1.62-1v13.85h-2.44v-2h-5.15v2.51h-2.45v-21.57h2.85a18.23 18.23 0 0 0 1.89-5.46l2.24.91a18.73 18.73 0 0 1-1.68 4.56h4.74v6.31a28.85 28.85 0 0 0 4.66-12l2.47.56q-.41 1.83-1.33 4.68zm-16.6 8.7v-6h-5.15v6zm0 8.46v-6.19h-5.15v6.19zm12.4-3.06l-2.24 1a26.36 26.36 0 0 0-4.21-7.28l1.92-1.27a23.48 23.48 0 0 1 4.52 7.56zm37.06 4.87l-1 2.51H168a12.24 12.24 0 0 1-6.87-2.82l-4.13 3.41-1.77-1.8a37 37 0 0 0 5.15-3.87v-8.52h-4.06v-2.26h6.42v11.4a6.59 6.59 0 0 0 2.57 1.68l.06-.06-.92-1.5a10.12 10.12 0 0 0 4.15-3.16 10 10 0 0 0 1.42-5.42h-4.92v-2.26h.77v-.11l-1.42-1q2.69-2.8 3.32-9.11l2.1.65a19.23 19.23 0 0 1-.38 3.1h2.92V105h2.36v4.16h4.95v2.26h-4.95v4.16H182v2.26h-5.2v6.8a.54.54 0 0 0 .28.26 1.09 1.09 0 0 0 .28.13h2.54a.49.49 0 0 0 .51-.48l.35-2.27 2.1.92q-.65 4.1-2.19 4.1h-4.28a1.93 1.93 0 0 1-1.29-.63 1.74 1.74 0 0 1-.67-1.2v-7.63h-2.17a13 13 0 0 1-1.5 6.34 8.78 8.78 0 0 1-4.24 4 7.68 7.68 0 0 0 2.72.38h11a16.93 16.93 0 0 0 3.28-.29zm-19.71-18.19a16.88 16.88 0 0 1-2 1.48 12.26 12.26 0 0 0-4-5.18l1.92-1.3a16.28 16.28 0 0 1 4.08 4.99zm8.55 5.52v-4.16h-3.46a10.85 10.85 0 0 1-2.18 4.16zm24.5 6.57l-9.26 3.19a14 14 0 0 1-1.12-2.27q3.16-.89 4.44-1.33v-11.57H187v-2.26h9.57v2.26h-3.29v10.7q2.45-.92 3.6-1.24zm9.55-1a9 9 0 0 1-.73 2.89 10.19 10.19 0 0 1-2.75 3.75 13.51 13.51 0 0 1-4.34 2.72 26.12 26.12 0 0 1-5.44 1.33l-1.06-2.33a15.63 15.63 0 0 0 8.69-2.75 8.28 8.28 0 0 0 3.35-7l.06-5.54 2.24.15zm7.07-13.14h-7.36a23.53 23.53 0 0 1-1 2.79h6.66v14.64h-2.36v-12.35h-8.7v13h-2.36v-15.27h4.31q.76-1.8 1.09-2.79h-6.68v-2.13h16.41zm.89 22.16q-.83 1-1.48 1.8a18 18 0 0 0-7.48-5.45l1.15-1.83a17.93 17.93 0 0 1 7.81 5.51z" id="_Group_2" data-name="&amp;lt;Group&amp;gt;"/></g></g></svg>