<svg xmlns="http://www.w3.org/2000/svg" viewBox="0 0 241.26 228.63"><defs><style>.cls-1{fill:#8951a0}.cls-2{fill:#fff}</style></defs><title>4CH</title><g id="Layer_2" data-name="Layer 2"><g id="Layer_1-2" data-name="Layer 1"><path id="_Rectangle_" data-name="&amp;lt;Rectangle&amp;gt;" class="cls-1" d="M0 0h241.26v228.63H0z"/><path class="cls-2" d="M78.91 60.25v10h-6.48v10.88h-12.1V70.26H37.51v-8.93l14.33-30.67h12.52L50.9 60.25h9.43V49.52h12.1v10.73z" id="_Group_" data-name="&amp;lt;Group&amp;gt;"/><path class="cls-2" d="M55.78 110.12h-7.49v2.72h6.54v6.92a2.31 2.31 0 0 1-.83 1.54 2.7 2.7 0 0 1-1.63.61h-2.29l-.79-2.33 2.54.12q.65-.18.65-.53v-4.09h-4.19v10.5h-2.36v-10.5H42v7.13h-2.34v-9.4h6.27v-2.72h-8v-2.26h8v-3.22h-3.5a16.21 16.21 0 0 1-1.86 2.85l-2.13-1.07a17.37 17.37 0 0 0 3.47-7.36l2 .8a16.44 16.44 0 0 1-.65 2.63h2.63v-4.85h2.36v4.89h5.83v2.15h-5.79v3.22h7.49zm3.28 9h-2.34v-17.46h2.35zm4.78 3.38a3.24 3.24 0 0 1-.64 2.16 3.16 3.16 0 0 1-2.38.79l-2.79.06-.8-2.39q2.47.23 3 .23 1.24 0 1.24-.94V97.82h2.36zm16.1-.9l-5.83 3.19-1.39-2a2.21 2.21 0 0 0 .39-1.21v-12.79h-4.46v-2.26h6.92v14.85l4.37-2.45zm-3.63-19.06l-2 1.48a13.68 13.68 0 0 0-3.91-4.68l1.65-1.44a13.43 13.43 0 0 1 4.26 4.64zm18.91-.5h-6.45v20.74a2.49 2.49 0 0 1-.56 2 2.57 2.57 0 0 1-2 .78h-3.76l-.78-2.56q1.91.15 3.1.15a5.79 5.79 0 0 0 1.34-.08q.22-.08.22-.49V102h-7.81v-2.23h16.7zM108 98.56a44.68 44.68 0 0 1-1.54 4.65l-1.09 2.86v19.72h-2.47V109.7a12.56 12.56 0 0 1-2.54 3.15l-2.36-1.2q4.92-4.15 7.72-14zm18.16 4.34a31.94 31.94 0 0 1-2.19 7l-2.16-.86a35.2 35.2 0 0 0 1.33-3.75h-5v17.17a2.91 2.91 0 0 1-.54 1.62 3.27 3.27 0 0 1-1.16 1.14 4.83 4.83 0 0 1-2.07.32q-.71 0-2-.09l-.74-2.27h2.88a1 1 0 0 0 1.18-1.17v-16.74h-3.65a22 22 0 0 1-3.69 6.07l-2.45-.89a24 24 0 0 0 5.52-12.71l2.41.53a31.93 31.93 0 0 1-1 4.65zm-11.93 8.22q-2.1 6.24-6.12 9.08l-1.92-1.59a16.22 16.22 0 0 0 5.87-8.52zm12.77 8.34l-2.18 1.3q-2.15-6.21-5.45-9.05l2-1.27a21.42 21.42 0 0 1 5.63 9.02zm28.85-16.68q-.12 12.53-1.2 17.48t-3.82 4.94a22.08 22.08 0 0 1-4.83-1l-.41-2.6a17 17 0 0 0 4.87 1.3q1.33 0 2.16-4.88a85.87 85.87 0 0 0 .89-13.07h-6.61a25.47 25.47 0 0 1-3.59 6.51l-1.62-1v13.85h-2.44v-2h-5.15v2.51h-2.45v-21.57h2.85a18.25 18.25 0 0 0 1.89-5.46l2.24.91a18.72 18.72 0 0 1-1.68 4.56h4.74v6.31a28.85 28.85 0 0 0 4.66-12l2.47.56q-.41 1.83-1.33 4.68zm-16.6 8.7v-6h-5.15v6zm0 8.46v-6.19h-5.15v6.19zm12.4-3.06l-2.24 1a26.36 26.36 0 0 0-4.21-7.28l1.92-1.27a23.47 23.47 0 0 1 4.52 7.56zm22.35.66l-2.41.62v7.52h-2.36v-6.81L162 120.8l-1.53-2.3q2-.27 2.65-.42v-16.54h-1.74v-2.27h11.69v2.27h-1.51v14.29q.47-.09 2.41-.62zm-4.77-12.75v-3.25h-3.72v3.25zm0 5.39v-3.12h-3.72v3.12zm0 6.3v-4h-3.72v5zm10.76.65a16.51 16.51 0 0 1-2.56 4.43 13.68 13.68 0 0 1-3.44 3.32l-1.76-1.71a7.34 7.34 0 0 0 2.25-1.63 15.84 15.84 0 0 0 1.94-2.57l1.88-3.07zm6.6-3H175V99.86h11.56zm-2.36-2.26v-9.73h-6.84v9.73zm4.93 11.87l-1.92 1.44a19.64 19.64 0 0 0-6.21-7.89l1.74-1.39q2.67 1.6 6.35 7.83zm29.84.16h-26.41v-2.27h9.05V98.76h2.42v22.87h3.6V98.76H210v22.87h9zm-19.16-6.45l-2.35 1a33.52 33.52 0 0 0-3.13-12l2-1a39.61 39.61 0 0 1 3.45 12zm17.36-11.14q-1 7.89-4 12.53l-2-1.21q3.22-4.54 3.84-12.09zM49.34 158.86l-6.07 3.35-1.39-2a1.79 1.79 0 0 0 .47-1.3v-13.28h-4.53v-2.27h6.87v15.47l4.65-2.54zm-3.77-19.56l-2 1.48a14 14 0 0 0-4-4.68l1.68-1.42a13.86 13.86 0 0 1 4.32 4.62zm19 7.1h-7.23v16.36H55V146.4h-7.24v-2.27H55v-9.2h2.36v9.2h7.22zm21.56 10.29q-1.2 6-3.25 6-1.59 0-3.52-2.08a15.91 15.91 0 0 1-3-4.43 29.89 29.89 0 0 1-6.62 3.82l-1.83-2a27.7 27.7 0 0 0 7.57-4.19 39.15 39.15 0 0 1-2-8.29l-4.37.61-.3-2.22 4.36-.65q-.29-5.81-.24-8.37h2.45v2q0 2.76.3 6l9.14-1.39.32 2.3-9.2 1.36a35.67 35.67 0 0 0 1.51 7 28.78 28.78 0 0 0 4.55-6.41l1.86 1.36a27 27 0 0 1-5.52 7.43 12.76 12.76 0 0 0 2.39 3.91q1.5 1.55 1.94 1.55.21 0 1.24-4.22zm-3.87-16.35l-1.89 1.53a11.21 11.21 0 0 0-4.5-4.5l1.74-1.45a12.63 12.63 0 0 1 4.65 4.43zm6.36 15.79h-2.35v-17.54h2.35zm5.7 3.87q0 2.72-3.5 2.66h-2l-.82-2.44 3.22.09a.76.76 0 0 0 .71-.8v-24.67h2.36z" id="_Group_2" data-name="&amp;lt;Group&amp;gt;"/></g></g></svg>