<svg xmlns="http://www.w3.org/2000/svg" viewBox="0 0 241.26 228.63"><defs><style>.cls-1{fill:#633570}.cls-2{fill:#fff}</style></defs><title>5</title><g id="Layer_2" data-name="Layer 2"><g id="Layer_1-2" data-name="Layer 1"><path id="_Rectangle_" data-name="&amp;lt;Rectangle&amp;gt;" class="cls-1" d="M0 0h241.26v228.63H0z"/><path class="cls-2" d="M70.43 50.89a15.88 15.88 0 0 1 6.84 5.4 13.5 13.5 0 0 1 2.41 7.92 16.8 16.8 0 0 1-2.52 9.22A16.46 16.46 0 0 1 70 79.55a25.71 25.71 0 0 1-10.87 2.16A33.85 33.85 0 0 1 48.69 80a37.7 37.7 0 0 1-9.54-4.54l4.9-9.5q7 5.62 13.61 5.62a9 9 0 0 0 5.83-1.69 5.65 5.65 0 0 0 2.09-4.64 5.29 5.29 0 0 0-2.05-4.5q-2.05-1.55-6.16-1.55-9.58 0-13.82.29V30.66h33.9v10.58H55.64v7.7h4.54a25.32 25.32 0 0 1 10.25 1.95z" id="_Group_" data-name="&amp;lt;Group&amp;gt;"/><path class="cls-2" d="M53.22 103.15a10 10 0 0 1 4.07 3.85 11.69 11.69 0 0 1 0 11.33 10 10 0 0 1-4.15 3.84 13.38 13.38 0 0 1-6.14 1.35h-9.17v-21.73h9.36a12.87 12.87 0 0 1 6.03 1.36zm-3 15a5.27 5.27 0 0 0 2-2.2 7.18 7.18 0 0 0 .78-3.25 6.88 6.88 0 0 0-.76-3.29 5.56 5.56 0 0 0-2.09-2.22 5.84 5.84 0 0 0-3-.79H43.5v12.52h3.84a5.49 5.49 0 0 0 2.92-.76zM75.24 109a9.49 9.49 0 0 1 2.2 6.63v1H65.76a4 4 0 0 0 1.4 2.19 3.86 3.86 0 0 0 2.42.76 5.23 5.23 0 0 0 2.09-.43 5.91 5.91 0 0 0 1.84-1.27l2.88 2.88a8.49 8.49 0 0 1-3.15 2.22 10.85 10.85 0 0 1-4.17.76 10 10 0 0 1-4.71-1.05 7.32 7.32 0 0 1-3.08-3 9 9 0 0 1-1.07-4.46 9.25 9.25 0 0 1 1.08-4.54 7.5 7.5 0 0 1 3.07-3 9.52 9.52 0 0 1 4.59-1.07 8.08 8.08 0 0 1 6.29 2.38zm-3.16 4.68a3.23 3.23 0 0 0-.85-2.34 3.24 3.24 0 0 0-4.43 0 4.32 4.32 0 0 0-1.16 2.36zm5.39-6.93h5.67l3.5 11.66 3.53-11.66h5.53l-6.29 16.77h-5.67zm33.24 2.25a9.49 9.49 0 0 1 2.2 6.63v1h-11.69a4 4 0 0 0 1.4 2.19 3.86 3.86 0 0 0 2.42.76 5.23 5.23 0 0 0 2.09-.43 5.91 5.91 0 0 0 1.84-1.27l2.88 2.88a8.49 8.49 0 0 1-3.15 2.22 10.85 10.85 0 0 1-4.17.76 10 10 0 0 1-4.71-1.05 7.32 7.32 0 0 1-3.08-3 9 9 0 0 1-1.07-4.46 9.25 9.25 0 0 1 1.08-4.54 7.5 7.5 0 0 1 3.07-3 9.52 9.52 0 0 1 4.59-1.07 8.08 8.08 0 0 1 6.3 2.38zm-3.16 4.68a3.23 3.23 0 0 0-.85-2.34 3.24 3.24 0 0 0-4.43 0 4.32 4.32 0 0 0-1.16 2.36zm8.33-13.16h5.52v23h-5.52zm22.48 7.11a7.82 7.82 0 0 1 3.22 3 9.38 9.38 0 0 1 0 9 7.82 7.82 0 0 1-3.22 3 11.33 11.33 0 0 1-9.61 0 7.71 7.71 0 0 1-3.21-3 9.49 9.49 0 0 1 0-9 7.71 7.71 0 0 1 3.21-3 11.33 11.33 0 0 1 9.61 0zm-7.41 4.54a4.43 4.43 0 0 0-1 3 4.48 4.48 0 0 0 1 3 3.28 3.28 0 0 0 2.6 1.15 3.31 3.31 0 0 0 2.64-1.15 4.48 4.48 0 0 0 1-3 4.39 4.39 0 0 0-1-3 3.33 3.33 0 0 0-2.62-1.15 3.28 3.28 0 0 0-2.62 1.15zm29.29-4.54a7.2 7.2 0 0 1 2.74 3 10.1 10.1 0 0 1 1 4.54 10 10 0 0 1-.95 4.46 7 7 0 0 1-2.7 3 7.69 7.69 0 0 1-4 1.05 6.65 6.65 0 0 1-2.87-.6 6 6 0 0 1-2.19-1.75v8.18h-5.57v-22.76h5.52v2.17a5.91 5.91 0 0 1 4.93-2.36 7.75 7.75 0 0 1 4.09 1.07zm-2.84 10.46a4.4 4.4 0 0 0 1-3 4.45 4.45 0 0 0-1-3 3.31 3.31 0 0 0-2.62-1.16 3.22 3.22 0 0 0-2.57 1.16 4.49 4.49 0 0 0-1 3 4.43 4.43 0 0 0 1 3 3.24 3.24 0 0 0 2.57 1.15 3.32 3.32 0 0 0 2.63-1.14zM44.3 165.85a6.79 6.79 0 0 1-4 1.13 7.9 7.9 0 0 1-2.6-.42 8.13 8.13 0 0 1-2.36-1.32l2.29-3.81a4.35 4.35 0 0 0 1.12.71 2.9 2.9 0 0 0 1.12.22 2.13 2.13 0 0 0 2-1.27l.4-.78-6.94-16.37H41l4 10.91 3.57-10.91h5.49l-7.19 18.41a7.64 7.64 0 0 1-2.57 3.5zM68 144.83a7.82 7.82 0 0 1 3.22 3 9.38 9.38 0 0 1 0 9 7.81 7.81 0 0 1-3.22 3 11.33 11.33 0 0 1-9.61 0 7.71 7.71 0 0 1-3.21-3 9.5 9.5 0 0 1 0-9 7.72 7.72 0 0 1 3.21-3 11.33 11.33 0 0 1 9.61 0zm-7.41 4.54a5.1 5.1 0 0 0 0 6 3.28 3.28 0 0 0 2.6 1.15 3.31 3.31 0 0 0 2.63-1.15 4.48 4.48 0 0 0 1-3 4.4 4.4 0 0 0-1-3 3.32 3.32 0 0 0-2.62-1.15 3.28 3.28 0 0 0-2.62 1.15zm30.96-5.42v16.77H86V158a5.89 5.89 0 0 1-5.36 3 5.66 5.66 0 0 1-4.36-1.75 6.58 6.58 0 0 1-1.63-4.67v-10.6h5.55v9a3.21 3.21 0 0 0 .73 2.23 2.52 2.52 0 0 0 2 .81 2.87 2.87 0 0 0 2.29-1.07 4.18 4.18 0 0 0 .84-2.71v-8.28zm11.98.56a6.31 6.31 0 0 1 3.15-.78v5.05a8.36 8.36 0 0 0-.84 0 5.11 5.11 0 0 0-3.16.91 3.51 3.51 0 0 0-1.4 2.5v8.56h-5.52v-16.8h5.52v2.79a6 6 0 0 1 2.25-2.23zm18.3 3.04a2.2 2.2 0 0 0-1.15.26.86.86 0 0 0-.43.79 1 1 0 0 0 .68.9 12.51 12.51 0 0 0 2.17.74 27.22 27.22 0 0 1 3 1 5.48 5.48 0 0 1 2.06 1.55 4.09 4.09 0 0 1 .87 2.71 4.66 4.66 0 0 1-2 4 8.48 8.48 0 0 1-5.13 1.44 13.78 13.78 0 0 1-4.09-.6 10.82 10.82 0 0 1-3.47-1.78l1.76-3.56a12.23 12.23 0 0 0 3 1.53 9 9 0 0 0 3 .54 2.68 2.68 0 0 0 1.29-.26.83.83 0 0 0 .48-.76 1.05 1.05 0 0 0-.7-1 13.28 13.28 0 0 0-2.19-.74 24.45 24.45 0 0 1-2.91-1 5.49 5.49 0 0 1-2-1.54 4 4 0 0 1-.85-2.67 4.7 4.7 0 0 1 1.92-4 8 8 0 0 1 5-1.44 13.47 13.47 0 0 1 7 2l-1.86 3.6a12.29 12.29 0 0 0-5.45-1.71zm21.08 13.17l-3.53-6.32-1.71 1.77v4.56h-5.52v-23h5.52v11.9l5.36-5.67h6.26l-6.14 6.48 6.26 10.29zm13.5-23.67a3.14 3.14 0 0 1 0 4.23 3 3 0 0 1-4.18 0 3.13 3.13 0 0 1 0-4.23 3.08 3.08 0 0 1 4.18 0zm-4.79 6.9h5.49v16.77h-5.49zm9.86-6.23H167v23h-5.52zm10.05 0H177v23h-5.52zm15.74 9.83a2.2 2.2 0 0 0-1.15.26.86.86 0 0 0-.43.79 1 1 0 0 0 .68.9 12.49 12.49 0 0 0 2.17.74 27.22 27.22 0 0 1 3 1 5.48 5.48 0 0 1 2.06 1.55 4.09 4.09 0 0 1 .87 2.71 4.66 4.66 0 0 1-2 4 8.48 8.48 0 0 1-5.13 1.44 13.78 13.78 0 0 1-4.09-.6 10.83 10.83 0 0 1-3.47-1.78l1.74-3.56a12.23 12.23 0 0 0 3 1.53 9 9 0 0 0 3 .54 2.68 2.68 0 0 0 1.29-.26.83.83 0 0 0 .48-.76 1.05 1.05 0 0 0-.7-1 13.36 13.36 0 0 0-2.19-.74 24.32 24.32 0 0 1-2.91-1 5.5 5.5 0 0 1-2-1.54 4 4 0 0 1-.85-2.67 4.7 4.7 0 0 1 1.92-4 8 8 0 0 1 5-1.44 13.47 13.47 0 0 1 7 2l-1.86 3.6a12.29 12.29 0 0 0-5.43-1.71z" id="_Group_2" data-name="&amp;lt;Group&amp;gt;"/></g></g></svg>