<svg xmlns="http://www.w3.org/2000/svg" viewBox="0 0 241.26 228.63"><defs><style>.cls-1{fill:#43214e}.cls-2{fill:#fff}</style></defs><title>6</title><g id="Layer_2" data-name="Layer 2"><g id="Layer_1-2" data-name="Layer 1"><path id="_Rectangle_" data-name="&amp;lt;Rectangle&amp;gt;" class="cls-1" d="M0 0h241.26v228.63H0z"/><path class="cls-2" d="M62.7 40.92a19 19 0 0 0-5.58-.83q-5.83 0-8.75 3.49t-2.77 9.76q3.82-5.4 11.74-5.4A16.93 16.93 0 0 1 65.8 50a14.12 14.12 0 0 1 5.62 5.76 18 18 0 0 1 2 8.6 17.8 17.8 0 0 1-2.3 9.18 15.42 15.42 0 0 1-6.52 6 21.39 21.39 0 0 1-9.76 2.12 21.11 21.11 0 0 1-11.45-3A19.55 19.55 0 0 1 36 70a31.62 31.62 0 0 1-2.59-13.28 32.66 32.66 0 0 1 2.84-14 21.58 21.58 0 0 1 8-9.32 22.16 22.16 0 0 1 12.1-3.28 33.34 33.34 0 0 1 8.53 1.15 29.71 29.71 0 0 1 7.52 3l-4.9 9.07a15.24 15.24 0 0 0-4.8-2.42zM48.95 59.35a7.51 7.51 0 0 0-.11 10 7.25 7.25 0 0 0 5.47 1.94 7.45 7.45 0 0 0 5.33-1.84 6.83 6.83 0 0 0 1.94-5.22 6.79 6.79 0 0 0-1.87-5.08 7.09 7.09 0 0 0-5.18-1.84 7.55 7.55 0 0 0-5.58 2.04z" id="_Group_" data-name="&amp;lt;Group&amp;gt;"/><path class="cls-2" d="M45.48 123.52l-3.16-6h-4.21v6h-5.68v-21.73h9.77a10.07 10.07 0 0 1 6.68 2 7 7 0 0 1 2.37 5.63 8.57 8.57 0 0 1-1 4.23 6.85 6.85 0 0 1-2.88 2.77l4.53 7.1zM38.11 113h4.12a3.82 3.82 0 0 0 2.68-.87 3.24 3.24 0 0 0 .95-2.51 3.11 3.11 0 0 0-.95-2.43 3.87 3.87 0 0 0-2.68-.85h-4.12zm30.44-4a9.49 9.49 0 0 1 2.2 6.63v1H59.06a4 4 0 0 0 1.4 2.19 3.86 3.86 0 0 0 2.42.76 5.22 5.22 0 0 0 2.09-.43 5.9 5.9 0 0 0 1.84-1.27l2.88 2.88a8.49 8.49 0 0 1-3.15 2.22 10.85 10.85 0 0 1-4.17.76 10 10 0 0 1-4.71-1.05 7.32 7.32 0 0 1-3.08-3 9 9 0 0 1-1.07-4.46 9.25 9.25 0 0 1 1.08-4.54 7.49 7.49 0 0 1 3.07-3 9.52 9.52 0 0 1 4.59-1.07 8.08 8.08 0 0 1 6.3 2.38zm-3.16 4.68a3.23 3.23 0 0 0-.85-2.34 3.24 3.24 0 0 0-4.43 0 4.32 4.32 0 0 0-1.16 2.36zm5.39-6.93h5.67L80 118.41l3.53-11.66H89l-6.29 16.77H77zm24.88-6.9a3.14 3.14 0 0 1 0 4.23 3 3 0 0 1-4.18 0 3.13 3.13 0 0 1 0-4.23 3.07 3.07 0 0 1 4.18 0zm-4.79 6.9h5.49v16.77h-5.49zm23.37 2.25a9.49 9.49 0 0 1 2.2 6.63v1h-11.69a4 4 0 0 0 1.4 2.19 3.86 3.86 0 0 0 2.42.76 5.22 5.22 0 0 0 2.09-.43 5.9 5.9 0 0 0 1.84-1.27l2.88 2.88a8.49 8.49 0 0 1-3.15 2.22 10.85 10.85 0 0 1-4.17.76 10 10 0 0 1-4.71-1.05 7.32 7.32 0 0 1-3.08-3 9 9 0 0 1-1.07-4.46 9.25 9.25 0 0 1 1.08-4.54 7.49 7.49 0 0 1 3.07-3 9.52 9.52 0 0 1 4.59-1.07 8.08 8.08 0 0 1 6.3 2.38zm-3.16 4.68a3.23 3.23 0 0 0-.85-2.34 3.24 3.24 0 0 0-4.43 0 4.32 4.32 0 0 0-1.16 2.36zm5.39-6.93h5.61l3.35 11.35 3.29-11.35H134l3.32 11.35 3.35-11.35H146l-6.14 16.77h-5.46l-3.19-10.35-3.21 10.35h-5.46zm-77.56 59.1a6.79 6.79 0 0 1-4 1.13 7.9 7.9 0 0 1-2.6-.42 8.12 8.12 0 0 1-2.31-1.31l2.29-3.81a4.35 4.35 0 0 0 1.12.71 2.9 2.9 0 0 0 1.12.22 2.13 2.13 0 0 0 2-1.27l.4-.78L30 143.95h5.67l4 10.91 3.57-10.91h5.49l-7.19 18.41a7.63 7.63 0 0 1-2.63 3.49zm23.69-21.02a7.82 7.82 0 0 1 3.22 3 9.38 9.38 0 0 1 0 9 7.82 7.82 0 0 1-3.22 3 11.33 11.33 0 0 1-9.61 0 7.71 7.71 0 0 1-3.21-3 9.49 9.49 0 0 1 0-9 7.71 7.71 0 0 1 3.21-3 11.33 11.33 0 0 1 9.61 0zm-7.41 4.54a5.1 5.1 0 0 0 0 6 3.28 3.28 0 0 0 2.6 1.15 3.31 3.31 0 0 0 2.64-1.15 4.48 4.48 0 0 0 1-3 4.4 4.4 0 0 0-1-3 3.33 3.33 0 0 0-2.62-1.15 3.28 3.28 0 0 0-2.62 1.15zm30.96-5.42v16.77h-5.51V158a5.89 5.89 0 0 1-5.36 3 5.66 5.66 0 0 1-4.36-1.75 6.58 6.58 0 0 1-1.63-4.67v-10.6h5.52v9a3.21 3.21 0 0 0 .73 2.23 2.52 2.52 0 0 0 2 .81 2.87 2.87 0 0 0 2.29-1.07 4.19 4.19 0 0 0 .84-2.71v-8.28zm11.99.56a6.31 6.31 0 0 1 3.15-.78v5.05a8.35 8.35 0 0 0-.84 0 5.1 5.1 0 0 0-3.16.91 3.5 3.5 0 0 0-1.4 2.5v8.56h-5.52v-16.8h5.52v2.79a6 6 0 0 1 2.25-2.23zm27.14.32a7.19 7.19 0 0 1 2.74 3 10.1 10.1 0 0 1 1 4.54 10 10 0 0 1-.95 4.46 7 7 0 0 1-2.7 3 7.69 7.69 0 0 1-4 1.05 6.65 6.65 0 0 1-2.87-.6 6 6 0 0 1-2.19-1.75v8.18h-5.52v-22.76h5.52v2.17a5.91 5.91 0 0 1 4.93-2.36 7.75 7.75 0 0 1 4.04 1.07zm-2.84 10.46a4.4 4.4 0 0 0 1-3 4.46 4.46 0 0 0-1-3 3.31 3.31 0 0 0-2.62-1.16 3.22 3.22 0 0 0-2.57 1.16 4.49 4.49 0 0 0-1 3 4.43 4.43 0 0 0 1 3 3.24 3.24 0 0 0 2.57 1.15 3.32 3.32 0 0 0 2.62-1.14zm9.56-17.57h5.52v23H132zm22.85 7.61a5.58 5.58 0 0 1 2 4.48v10.91h-5.42v-1.89a6 6 0 0 1-5.05 2.14 5.89 5.89 0 0 1-4.2-1.44 5 5 0 0 1-1.54-3.8 4.5 4.5 0 0 1 1.66-3.72 7.56 7.56 0 0 1 4.76-1.36h4.37v-.19a2.23 2.23 0 0 0-.82-1.86 3.74 3.74 0 0 0-2.37-.65 9.6 9.6 0 0 0-2.37.34 14.18 14.18 0 0 0-2.65 1l-1.52-3.72a21.79 21.79 0 0 1 3.92-1.38 16.68 16.68 0 0 1 3.89-.45 8.21 8.21 0 0 1 5.34 1.59zm-4.65 11.28a2.62 2.62 0 0 0 1.18-1.57v-1.46h-3.29q-2.32 0-2.32 1.74a1.71 1.71 0 0 0 .6 1.38 2.49 2.49 0 0 0 1.66.51 3.9 3.9 0 0 0 2.17-.6zm25.8-11.14a6.5 6.5 0 0 1 1.66 4.68v10.57h-5.49v-9a3.15 3.15 0 0 0-.77-2.25 2.72 2.72 0 0 0-2.08-.82 3.19 3.19 0 0 0-2.25.9 3.66 3.66 0 0 0-1 2.29v8.87h-5.52v-16.76H166v2.73a6 6 0 0 1 2.31-2.2 6.84 6.84 0 0 1 3.24-.74 5.83 5.83 0 0 1 4.45 1.73z" id="_Group_2" data-name="&amp;lt;Group&amp;gt;"/></g></g></svg>