<svg xmlns="http://www.w3.org/2000/svg" viewBox="0 0 241.26 228.63"><defs><style>.cls-1{fill:#43214e}.cls-2{fill:#fff}</style></defs><title>6CH</title><g id="Layer_2" data-name="Layer 2"><g id="Layer_1-2" data-name="Layer 1"><path id="_Rectangle_" data-name="&amp;lt;Rectangle&amp;gt;" class="cls-1" d="M0 0h241.26v228.63H0z"/><path class="cls-2" d="M62.7 40.92a19 19 0 0 0-5.58-.83q-5.83 0-8.75 3.49t-2.77 9.76q3.82-5.4 11.74-5.4A16.93 16.93 0 0 1 65.8 50a14.12 14.12 0 0 1 5.62 5.76 18 18 0 0 1 2 8.6 17.8 17.8 0 0 1-2.3 9.18 15.42 15.42 0 0 1-6.52 6 21.39 21.39 0 0 1-9.76 2.12 21.11 21.11 0 0 1-11.45-3A19.55 19.55 0 0 1 36 70a31.62 31.62 0 0 1-2.59-13.28 32.66 32.66 0 0 1 2.84-14 21.58 21.58 0 0 1 8-9.32 22.16 22.16 0 0 1 12.1-3.28 33.34 33.34 0 0 1 8.53 1.15 29.71 29.71 0 0 1 7.52 3l-4.9 9.07a15.24 15.24 0 0 0-4.8-2.42zM48.95 59.35a7.51 7.51 0 0 0-.11 10 7.25 7.25 0 0 0 5.47 1.94 7.45 7.45 0 0 0 5.33-1.84 6.83 6.83 0 0 0 1.94-5.22 6.79 6.79 0 0 0-1.87-5.08 7.09 7.09 0 0 0-5.18-1.84 7.55 7.55 0 0 0-5.58 2.04z" id="_Group_" data-name="&amp;lt;Group&amp;gt;"/><path class="cls-2" d="M57.33 124.17l-2.36.06V122H36.68v2.44h-2.36v-24.29h23zM55 119.68v-17.3H36.68v17.3zm-3.44-3.47H40v-10.38h11.53zM49.17 114v-5.92h-6.81V114zm27.59-12.73h-9.43v10.53a35.91 35.91 0 0 1-.72 8.27 11.84 11.84 0 0 1-2.31 4.75l-1.86-1.65a9.78 9.78 0 0 0 2.25-4.62 42.64 42.64 0 0 0 .45-7.06V99.12h11.62zm.18 18.62q-5.22 3.06-7 4l-1.14-2.29a1.23 1.23 0 0 0 .33-.83v-16.5h7.28v5.71a21.7 21.7 0 0 1-.29 4 2.08 2.08 0 0 1-1 1.49 5 5 0 0 1-2.21.36 2.84 2.84 0 0 1-.63-.08 19.79 19.79 0 0 0-.5-2.19 5.32 5.32 0 0 0 1.17.17 1.05 1.05 0 0 0 1.05-.83 9.6 9.6 0 0 0 .28-2.79l-.08-3.69h-2.83v13.85a30.85 30.85 0 0 0 2.82-1.35l2.75-1.43zm7.42-11.84v2q0 7.33-1.85 10.34a13.91 13.91 0 0 1-5.81 5l-1.51-1.8q4.33-2.33 5.67-4.71t1.34-7.11v-3.68zm5.8-6.75H84.3q-.08.32-.24 1.49a9.63 9.63 0 0 1-.29 1.51h4.89V118h-2.19v-11.43H80.2v12.25H78V104.3h3.44a7.94 7.94 0 0 0 .3-1.63c.09-.79.16-1.27.2-1.43H77.2v-2.12h13zm.71 22.63L89 125.41a23.53 23.53 0 0 0-5.15-6.27l1.77-1.24a22.26 22.26 0 0 1 5.25 6.03zm11.96-25.37a44.68 44.68 0 0 1-1.54 4.65l-1.09 2.86v19.72h-2.49V109.7a12.56 12.56 0 0 1-2.54 3.15l-2.35-1.2q4.92-4.15 7.72-14zM121 102.9a31.94 31.94 0 0 1-2.19 7l-2.17-.86a35.2 35.2 0 0 0 1.33-3.75h-5v17.17a2.91 2.91 0 0 1-.54 1.62 3.27 3.27 0 0 1-1.16 1.14 4.83 4.83 0 0 1-2.07.32q-.71 0-2-.09l-.74-2.27h2.88a1 1 0 0 0 1.18-1.17v-16.74h-3.62a22 22 0 0 1-3.69 6.07l-2.45-.89a24 24 0 0 0 5.52-12.71l2.41.53a32 32 0 0 1-1 4.65zm-11.93 8.22q-2.1 6.24-6.12 9.08l-1.95-1.58a16.21 16.21 0 0 0 5.87-8.52zm12.75 8.34l-2.18 1.3q-2.15-6.21-5.45-9.05l2-1.27a21.42 21.42 0 0 1 5.62 9.02zm28.84-16.68q-.12 12.53-1.2 17.48t-3.82 4.94a22.1 22.1 0 0 1-4.83-1l-.41-2.6a17 17 0 0 0 4.87 1.3q1.33 0 2.16-4.88a85.81 85.81 0 0 0 .88-13.07h-6.61a25.5 25.5 0 0 1-3.59 6.51l-1.62-1v13.85h-2.44v-2h-5.15v2.51h-2.45v-21.57h2.85a18.23 18.23 0 0 0 1.89-5.46l2.24.91a18.73 18.73 0 0 1-1.68 4.56h4.74v6.31a28.85 28.85 0 0 0 4.66-12l2.47.56q-.41 1.83-1.33 4.68zm-16.6 8.7v-6h-5.15v6zm0 8.46v-6.19h-5.15v6.19zm12.4-3.06l-2.24 1a26.36 26.36 0 0 0-4.21-7.28l1.92-1.27a23.48 23.48 0 0 1 4.52 7.56zm22.3.66l-2.41.62v7.52H164v-6.81l-7.19 1.92-1.53-2.3q2-.27 2.65-.42v-16.53h-1.74v-2.27h11.69v2.27h-1.51v14.29q.47-.09 2.41-.62zM164 104.8v-3.25h-3.72v3.25zm0 5.39v-3.12h-3.72v3.12zm0 6.3v-4h-3.72v5zm10.76.65a16.51 16.51 0 0 1-2.56 4.43 13.69 13.69 0 0 1-3.44 3.32l-1.76-1.72a7.35 7.35 0 0 0 2.25-1.63 15.78 15.78 0 0 0 1.95-2.54l1.88-3.07zm6.6-3h-11.57V99.86h11.56zm-2.36-2.28v-9.73h-6.84v9.73zm4.93 11.87l-1.93 1.44a19.64 19.64 0 0 0-6.21-7.89l1.74-1.39q2.72 1.61 6.4 7.84zm29.85.17H187.4v-2.27h9.05V98.76h2.42v22.87h3.6V98.76h2.32v22.87h9zm-19.16-6.45l-2.35 1a33.5 33.5 0 0 0-3.13-12l2-1a39.62 39.62 0 0 1 3.48 12zM212 106.31q-1 7.89-4 12.53l-2-1.21q3.22-4.54 3.84-12.09zM44.14 158.86l-6.07 3.35-1.39-2a1.79 1.79 0 0 0 .47-1.3v-13.28h-4.53v-2.27h6.88v15.47l4.65-2.54zm-3.77-19.56l-2 1.48a14 14 0 0 0-4-4.68l1.68-1.42a13.86 13.86 0 0 1 4.32 4.62zm19 7.1h-7.22v16.36h-2.36V146.4h-7.22v-2.27h7.22v-9.2h2.36v9.2h7.22zm21.57 10.29q-1.2 6-3.25 6-1.59 0-3.52-2.08a15.9 15.9 0 0 1-3-4.43 29.89 29.89 0 0 1-6.62 3.82l-1.83-2a27.69 27.69 0 0 0 7.57-4.19 39.15 39.15 0 0 1-2-8.29l-4.37.61-.3-2.22 4.38-.61q-.29-5.81-.24-8.37h2.45v2q0 2.76.3 6l9.14-1.39.32 2.3-9.2 1.36a35.82 35.82 0 0 0 1.51 7 28.75 28.75 0 0 0 4.59-6.45l1.86 1.36a27.05 27.05 0 0 1-5.53 7.43 12.77 12.77 0 0 0 2.39 3.91Q77 160 77.47 160q.21 0 1.24-4.22zm-3.87-16.35l-1.89 1.53a11.2 11.2 0 0 0-4.5-4.5l1.74-1.45a12.63 12.63 0 0 1 4.65 4.43zm6.36 15.79h-2.35v-17.54h2.35zm5.7 3.87q0 2.72-3.5 2.66h-2l-.85-2.39 3.22.09a.76.76 0 0 0 .71-.8v-24.72h2.36z" id="_Group_2" data-name="&amp;lt;Group&amp;gt;"/></g></g></svg>