<svg xmlns="http://www.w3.org/2000/svg" viewBox="0 0 241.26 228.63"><defs><style>.cls-1{fill:#f37021}.cls-2{fill:#fff}</style></defs><title>9CH</title><g id="Layer_2" data-name="Layer 2"><g id="Layer_1-2" data-name="Layer 1"><path id="_Rectangle_" data-name="&amp;lt;Rectangle&amp;gt;" class="cls-1" d="M0 0h241.26v177.57a51.06 51.06 0 0 1-51.06 51.06H0V0z"/><path class="cls-2" d="M44 71.39a18.54 18.54 0 0 0 5.54.83q5.76 0 8.71-3.49T61 58.9q-3.82 5.47-11.74 5.47a16.72 16.72 0 0 1-8.42-2.05 14.17 14.17 0 0 1-5.58-5.76 18 18 0 0 1-2-8.6 17.79 17.79 0 0 1 2.3-9.18 15.47 15.47 0 0 1 6.48-6 21.17 21.17 0 0 1 9.72-2.12 21.1 21.1 0 0 1 11.45 3 19.58 19.58 0 0 1 7.42 8.64 31.55 31.55 0 0 1 2.59 13.32 32.67 32.67 0 0 1-2.84 14 21.57 21.57 0 0 1-8 9.32 22.15 22.15 0 0 1-12.1 3.28 32.9 32.9 0 0 1-8.5-1.15 29.63 29.63 0 0 1-7.49-3L39.16 69A16.2 16.2 0 0 0 44 71.39zm3.1-28.58A7 7 0 0 0 45.2 48a6.94 6.94 0 0 0 1.8 5.1 6.83 6.83 0 0 0 5.11 1.84 7.54 7.54 0 0 0 5.58-2 7 7 0 0 0 2-5.15 6.77 6.77 0 0 0-1.87-4.9A7.25 7.25 0 0 0 52.33 41a7.19 7.19 0 0 0-5.25 1.8z" id="_Group_" data-name="&amp;lt;Group&amp;gt;"/><path class="cls-2" d="M44.28 118.68l-2.21.65v7.57h-2.35V120L33 122l-1.48-2.35a16.84 16.84 0 0 0 2.38-.41v-16.42h-1.71v-2.27h11.62v2.27h-1.74V117a18.92 18.92 0 0 0 2.21-.62zm-4.56-12.52v-3.35h-3.51v3.35zm0 5.65v-3.39h-3.51v3.39zm0 6v-3.72h-3.51v4.62q2.5-.62 3.51-.92zm19.74 7.49l-1.67 1.56q-5.61-3.47-6.79-12.36h-.06Q50 123 44 126.81L42.48 125a13.25 13.25 0 0 0 4.15-4.06 18.06 18.06 0 0 0 2-6.41h-5.68v-2.27h5.89q.09-.91.09-3.75V108h-5.4v-2.27h7a24.42 24.42 0 0 0 3.19-6.42l2.15 1.15q-2.07 4.12-2.8 5.27H58V108h-6.79q0 3.19-.12 4.24h7.72v2.27H53a16.05 16.05 0 0 0 6.46 10.77zm-9.76-20.97l-2 1.12a9.65 9.65 0 0 0-2.85-4.78l1.91-1.07a11.62 11.62 0 0 1 2.94 4.73zm23.46 14.76a19.24 19.24 0 0 1-8.37 6.36l-1.54-1.92a17 17 0 0 0 8-5.93zm16.35-1.92l-1.92 1.51a23.78 23.78 0 0 0-1.59-2.07h-7.84V127H75.7v-10.39H66l-.48-2.27h4.39a22.42 22.42 0 0 0 4-2.63l-7-3.16 1.27-2 2.2 1a23 23 0 0 0 4.46-3.69q-4.89.53-9.43.59l-1-2.36q14.32-.11 22.22-2.85l1.65 2A55.27 55.27 0 0 1 77 103.59l1 .62a32.51 32.51 0 0 1-5.4 4.33l3.54 1.68a55.07 55.07 0 0 0 6.86-5.83l2 1.48a64.52 64.52 0 0 1-11.26 8.46h10.37a23.74 23.74 0 0 0-3.17-2.33l1.89-1.21a19.2 19.2 0 0 1 6.68 6.38zm1 6.42l-1.61 1.92a22.19 22.19 0 0 0-8.1-5.89l1.42-1.71a24 24 0 0 1 8.3 5.67zm31.04.92l-1.8 2A23.88 23.88 0 0 1 107.88 114q-3.06 7.31-11.5 12.4l-1.86-1.83a29.35 29.35 0 0 0 6-4.53 24.21 24.21 0 0 0 4-5.09 15.43 15.43 0 0 0 1.89-5.66 78.71 78.71 0 0 0 .47-9.28h2.47q0 1.92-.21 5.08t-.24 5a11.3 11.3 0 0 0 1.6 4.31 23.09 23.09 0 0 0 4.25 5.65 21.86 21.86 0 0 0 6.8 4.46z" id="_Group_2" data-name="&amp;lt;Group&amp;gt;"/></g></g></svg>