<svg xmlns="http://www.w3.org/2000/svg" viewBox="0 0 241.26 228.63"><defs><style>.cls-1{fill:#149fbc;}.cls-2{fill:#fff;}</style></defs><title>1CH</title><g id="Layer_2" data-name="Layer 2"><g id="Layer_1-2" data-name="Layer 1"><path id="_Rectangle_" data-name="&lt;Rectangle&gt;" class="cls-1" d="M51.06,0h190.2a0,0,0,0,1,0,0V228.63a0,0,0,0,1,0,0H0a0,0,0,0,1,0,0V51.06A51.06,51.06,0,0,1,51.06,0Z"/><g id="_Group_" data-name="&lt;Group&gt;"><path class="cls-2" d="M33.31,35.18h22.9V85.65H43V46H33.31Z"/></g><g id="_Group_2" data-name="&lt;Group&gt;"><path class="cls-2" d="M47.32,112.58H44v5.56l2.92-1.3-.06,2.5L44,120.61v9a2.39,2.39,0,0,1-.86,1.77q-.86.8-4.44.62l-.74-2.26,2.35.12q1.33.09,1.33-1.33v-7.1q-2.36,1-3.06,1.21l-1.56-2a47.53,47.53,0,0,0,4.62-1.54v-6.51H37.68v-2.27h3.94v-5.89H44v5.89h3.35ZM65.56,128.3l-.94,2.42-6.42-.06a12.53,12.53,0,0,1-8.52-2.89,9.22,9.22,0,0,1-3.72,4.5l-1.6-1.73a8.25,8.25,0,0,0,3.13-3.42,12.52,12.52,0,0,0,.83-5.78l2.32.3a22.61,22.61,0,0,1-.27,3.69,8.5,8.5,0,0,0,3.78,2.44v-7.61H47.08v-2.27H64.35v2.27H56.5v2.69h6.12v2.26H56.5v3.19a24.4,24.4,0,0,0,3.33.2Q60.9,128.49,65.56,128.3Zm-3.63-11.9H48.35V105.58H61.93Zm-2.36-6.63v-1.92H50.71v1.92Zm0,4.36V112H50.71v2.1Z"/><path class="cls-2" d="M95.15,110.78H68.88v-2.23h7.55a9,9,0,0,0-3.16-3.38l2.3-1.32q1.76,1.08,3.84,4.69h4.87a13.68,13.68,0,0,0,3-4.87l2.24,1.21a15.36,15.36,0,0,1-2.3,3.66h8ZM82,128.86a2.2,2.2,0,0,1-.93,1.92,3.87,3.87,0,0,1-2.35.62l-2.07,0-.77-2.26,3.15.09q.62-.11.62-.59V125H74v6.15H71.63V113.23H82ZM79.68,118v-2.51H74V118Zm0,4.81v-2.72H74v2.72Zm7.57,3.56H84.89V114.16h2.36Zm5.27,3.07q0,2.41-3.19,2.45l-2.32,0-.74-2.3a16.33,16.33,0,0,0,3.28-.17.72.72,0,0,0,.52-.75V112.11h2.45Z"/><path class="cls-2" d="M110.88,117.7h-4.25a21.72,21.72,0,0,1-6.6,13.85l-1.71-1.73a21,21,0,0,0,6.05-12.12H99v-2.13h5.43q0-.57,0-1.38l0-2.85H99.85v-2.26h4.53v-4.66h2.35v4.66h3.84v2.26h-3.78v4.22h4.1Zm8-8.25q-.62,11.5-3.32,15.67t-9,6.65l-1.42-2q5.81-2.09,8.24-5.52t3.35-15.07Zm-7.19,15.91-1.86,1.36a15.13,15.13,0,0,0-3.6-5.15l1.71-1.24A13.64,13.64,0,0,1,111.68,125.36ZM123.78,123h-2.21V107.74h-8V123h-2.19V105.61h12.37Zm2.63,3.16q-1,4.34-2.6,4.34h-3.6a2.89,2.89,0,0,1-2-.66,1.91,1.91,0,0,1-.76-1.46v-7.87h2.36v7.66q.12.18.21.18h3.35q.73-.33,1-3Z"/><path class="cls-2" d="M148.13,126q-1.2,6-3.25,6-1.59,0-3.52-2.08a15.9,15.9,0,0,1-3-4.43,29.89,29.89,0,0,1-6.66,3.84l-1.83-2a27.68,27.68,0,0,0,7.57-4.19,39.15,39.15,0,0,1-2-8.29l-4.37.61-.3-2.23,4.36-.65q-.29-5.81-.24-8.37h2.45q0,1,0,2,0,2.76.3,6l9.14-1.39.32,2.3-9.2,1.36a35.68,35.68,0,0,0,1.51,7,28.81,28.81,0,0,0,4.59-6.45l1.86,1.36a27,27,0,0,1-5.52,7.43,12.75,12.75,0,0,0,2.39,3.91q1.45,1.58,1.89,1.58.21,0,1.24-4.22Zm-3.87-16.35-1.89,1.53a11.21,11.21,0,0,0-4.5-4.5l1.74-1.45A12.63,12.63,0,0,1,144.26,109.66Zm6.36,15.79h-2.35V107.91h2.35Zm5.71,3.84q0,2.72-3.5,2.66l-2,0-.85-2.39,3.22.09a.76.76,0,0,0,.71-.8V104.15h2.36Z"/></g></g></g></svg>