<svg xmlns="http://www.w3.org/2000/svg" viewBox="0 0 241.26 228.63"><defs><style>.cls-1{fill:#149fbc;}.cls-2{fill:#fff;}</style></defs><title>1</title><g id="Layer_2" data-name="Layer 2"><g id="Layer_1-2" data-name="Layer 1"><path id="_Rectangle_" data-name="&lt;Rectangle&gt;" class="cls-1" d="M51.06,0h190.2a0,0,0,0,1,0,0V228.63a0,0,0,0,1,0,0H0a0,0,0,0,1,0,0V51.06A51.06,51.06,0,0,1,51.06,0Z"/><g id="_Group_" data-name="&lt;Group&gt;"><path class="cls-2" d="M33.31,35.18h22.9V85.65H43V46H33.31Z"/></g><g id="_Group_2" data-name="&lt;Group&gt;"><path class="cls-2" d="M52,118.94h4.9v8.65a14.49,14.49,0,0,1-4.26,2.06,16,16,0,0,1-4.79.79A12,12,0,0,1,41.92,129a10.88,10.88,0,0,1-4.17-4,11.12,11.12,0,0,1-1.52-5.77,10.74,10.74,0,0,1,1.57-5.72,11,11,0,0,1,4.31-4A12.85,12.85,0,0,1,48.23,108a14,14,0,0,1,4.84.88,12.57,12.57,0,0,1,4.09,2.37l-3.22,4a9.05,9.05,0,0,0-2.71-1.77,7.71,7.71,0,0,0-3-.65,6,6,0,0,0-5.33,3.13,6.61,6.61,0,0,0-.81,3.26,6.76,6.76,0,0,0,.81,3.3,5.92,5.92,0,0,0,2.23,2.31,6.13,6.13,0,0,0,3.16.84A8.58,8.58,0,0,0,52,124.55Z"/><path class="cls-2" d="M74.33,115.5a9.49,9.49,0,0,1,2.2,6.63q0,.65,0,1H64.84a4,4,0,0,0,1.4,2.19,3.86,3.86,0,0,0,2.42.76,5.24,5.24,0,0,0,2.09-.43,5.92,5.92,0,0,0,1.84-1.27l2.88,2.88a8.49,8.49,0,0,1-3.15,2.22,10.85,10.85,0,0,1-4.17.76,10,10,0,0,1-4.71-1.05,7.32,7.32,0,0,1-3.08-3,9,9,0,0,1-1.07-4.46,9.25,9.25,0,0,1,1.08-4.54,7.5,7.5,0,0,1,3.07-3A9.52,9.52,0,0,1,68,113.08,8.08,8.08,0,0,1,74.33,115.5Zm-3.16,4.68a3.23,3.23,0,0,0-.85-2.34,3.24,3.24,0,0,0-4.43,0,4.32,4.32,0,0,0-1.16,2.36Z"/><path class="cls-2" d="M90.26,129.17a8.28,8.28,0,0,1-2.14.82,10.31,10.31,0,0,1-2.45.29,5.66,5.66,0,0,1-4-1.43,5.11,5.11,0,0,1-1.53-3.94v-7.19H77.8v-3.66h2.32v-4.65h5.49v4.65H90v3.66H85.61v6.32q0,1.77,1.46,1.77a5.38,5.38,0,0,0,2.14-.56Z"/><path class="cls-2" d="M53.59,167.24l-1.49-3.84H42.71l-1.52,3.84H35.36l9.33-21.73h5.83l9.11,21.73Zm-9.18-8.18h6l-3-7.75Z"/><path class="cls-2" d="M77.26,152a6.5,6.5,0,0,1,1.66,4.68v10.57H73.4v-9a3.18,3.18,0,0,0-.76-2.25,2.71,2.71,0,0,0-2.09-.82,3.08,3.08,0,0,0-2.4,1.07,4,4,0,0,0-.88,2.71v8.28H61.74v-23h5.52v9a6,6,0,0,1,2.31-2.2,6.84,6.84,0,0,1,3.24-.74A5.86,5.86,0,0,1,77.26,152Z"/><path class="cls-2" d="M96.31,152.7a9.49,9.49,0,0,1,2.2,6.63q0,.65,0,1H86.82a4,4,0,0,0,1.4,2.19,3.86,3.86,0,0,0,2.42.76,5.24,5.24,0,0,0,2.09-.43,5.92,5.92,0,0,0,1.84-1.27l2.88,2.88a8.49,8.49,0,0,1-3.15,2.22,10.85,10.85,0,0,1-4.17.76,10,10,0,0,1-4.71-1.05,7.32,7.32,0,0,1-3.08-3,9,9,0,0,1-1.07-4.46,9.25,9.25,0,0,1,1.08-4.54,7.5,7.5,0,0,1,3.07-3A9.52,9.52,0,0,1,90,150.28,8.08,8.08,0,0,1,96.31,152.7Zm-3.16,4.68a3.23,3.23,0,0,0-.85-2.34,3.24,3.24,0,0,0-4.43,0,4.32,4.32,0,0,0-1.16,2.36Z"/><path class="cls-2" d="M114.29,151.85a5.59,5.59,0,0,1,2,4.48v10.91h-5.42v-1.89a6,6,0,0,1-5.05,2.14,5.89,5.89,0,0,1-4.2-1.44,5,5,0,0,1-1.53-3.8,4.51,4.51,0,0,1,1.66-3.72,7.57,7.57,0,0,1,4.76-1.36h4.37V157a2.24,2.24,0,0,0-.82-1.86,3.75,3.75,0,0,0-2.37-.65,9.58,9.58,0,0,0-2.37.34,14.13,14.13,0,0,0-2.65,1l-1.52-3.72A21.83,21.83,0,0,1,105,150.7a16.65,16.65,0,0,1,3.89-.45A8.21,8.21,0,0,1,114.29,151.85Zm-4.65,11.28a2.62,2.62,0,0,0,1.18-1.57v-1.46h-3.29q-2.33,0-2.33,1.74a1.71,1.71,0,0,0,.6,1.38,2.49,2.49,0,0,0,1.66.51A3.89,3.89,0,0,0,109.64,163.13Z"/><path class="cls-2" d="M136.89,144.23v23h-5.52v-2.17a5.67,5.67,0,0,1-2.12,1.78,6.45,6.45,0,0,1-2.84.6,7.66,7.66,0,0,1-4.09-1.08,7.29,7.29,0,0,1-2.74-3.05,10.09,10.09,0,0,1-1-4.54,9.85,9.85,0,0,1,1-4.46,7.11,7.11,0,0,1,2.7-3,7.61,7.61,0,0,1,4-1.05,6.6,6.6,0,0,1,2.9.62,6.13,6.13,0,0,1,2.19,1.77v-8.43ZM130.38,162a5.12,5.12,0,0,0,0-6.06,3.53,3.53,0,0,0-5.22,0,5,5,0,0,0,0,6,3.3,3.3,0,0,0,2.62,1.16A3.26,3.26,0,0,0,130.38,162Z"/></g></g></g></svg>