<svg xmlns="http://www.w3.org/2000/svg" viewBox="0 0 241.26 228.63"><defs><style>.cls-1{fill:#077183;}.cls-2{fill:#fff;}</style></defs><title>2</title><g id="Layer_2" data-name="Layer 2"><g id="Layer_1-2" data-name="Layer 1"><rect id="_Rectangle_" data-name="&lt;Rectangle&gt;" class="cls-1" width="241.26" height="228.63"/><g id="_Group_" data-name="&lt;Group&gt;"><path class="cls-2" d="M79,75.06V85.65H40.59l-.07-8.71L58.88,58.07a26,26,0,0,0,3.53-4.46,7.69,7.69,0,0,0,1.37-3.82,3.74,3.74,0,0,0-1.51-3.2A7,7,0,0,0,58,45.47a16.43,16.43,0,0,0-6.73,1.69,29.51,29.51,0,0,0-7.16,4.72l-5-9.72Q49.52,34.6,60,34.6a23.43,23.43,0,0,1,9,1.66,14.61,14.61,0,0,1,6.26,4.68,11.22,11.22,0,0,1,2.27,6.91,15.29,15.29,0,0,1-2.56,8,49.94,49.94,0,0,1-7.24,8.82L57.51,75.06Z"/></g><g id="_Group_2" data-name="&lt;Group&gt;"><path class="cls-2" d="M52.49,118.94h4.9v8.65a14.49,14.49,0,0,1-4.26,2.06,16,16,0,0,1-4.79.79A12,12,0,0,1,42.4,129a10.88,10.88,0,0,1-4.17-4,11.12,11.12,0,0,1-1.52-5.77,10.74,10.74,0,0,1,1.57-5.72,11,11,0,0,1,4.31-4A12.85,12.85,0,0,1,48.71,108a14,14,0,0,1,4.84.88,12.57,12.57,0,0,1,4.09,2.37l-3.22,4a9.05,9.05,0,0,0-2.71-1.77,7.71,7.71,0,0,0-3-.65,6,6,0,0,0-5.33,3.13,6.61,6.61,0,0,0-.81,3.26,6.76,6.76,0,0,0,.81,3.3,5.92,5.92,0,0,0,2.23,2.31,6.13,6.13,0,0,0,3.16.84,8.58,8.58,0,0,0,3.75-1.05Z"/><path class="cls-2" d="M74.81,115.5a9.49,9.49,0,0,1,2.2,6.63q0,.65,0,1H65.32a4,4,0,0,0,1.4,2.19,3.86,3.86,0,0,0,2.42.76,5.24,5.24,0,0,0,2.09-.43,5.92,5.92,0,0,0,1.84-1.27L76,127.25a8.49,8.49,0,0,1-3.15,2.22,10.85,10.85,0,0,1-4.17.76,10,10,0,0,1-4.71-1.05,7.32,7.32,0,0,1-3.08-3,9,9,0,0,1-1.07-4.46,9.25,9.25,0,0,1,1.08-4.54,7.5,7.5,0,0,1,3.07-3,9.52,9.52,0,0,1,4.59-1.07A8.08,8.08,0,0,1,74.81,115.5Zm-3.16,4.68a3.23,3.23,0,0,0-.85-2.34,3.24,3.24,0,0,0-4.43,0,4.32,4.32,0,0,0-1.16,2.36Z"/><path class="cls-2" d="M90.74,129.17a8.28,8.28,0,0,1-2.14.82,10.31,10.31,0,0,1-2.45.29,5.66,5.66,0,0,1-4-1.43,5.11,5.11,0,0,1-1.53-3.94v-7.19H78.28v-3.66h2.32v-4.65h5.49v4.65h4.34v3.66H86.09v6.32q0,1.77,1.46,1.77a5.38,5.38,0,0,0,2.14-.56Z"/><path class="cls-2" d="M113.22,114.64a5.59,5.59,0,0,1,2,4.48V130h-5.42v-1.89a6,6,0,0,1-5.05,2.14,5.89,5.89,0,0,1-4.2-1.44A5,5,0,0,1,99,125a4.51,4.51,0,0,1,1.66-3.72,7.57,7.57,0,0,1,4.76-1.36h4.37v-.19a2.24,2.24,0,0,0-.82-1.86,3.75,3.75,0,0,0-2.37-.65,9.58,9.58,0,0,0-2.37.34,14.13,14.13,0,0,0-2.65,1L100,114.88a21.83,21.83,0,0,1,3.92-1.38,16.65,16.65,0,0,1,3.89-.45A8.21,8.21,0,0,1,113.22,114.64Zm-4.65,11.28a2.62,2.62,0,0,0,1.18-1.57v-1.46h-3.29q-2.33,0-2.33,1.74a1.71,1.71,0,0,0,.6,1.38,2.49,2.49,0,0,0,1.66.51A3.89,3.89,0,0,0,108.57,125.93Z"/><path class="cls-2" d="M45.64,154.84A3,3,0,0,0,43.22,156a5.1,5.1,0,0,0,0,5.87A3,3,0,0,0,45.64,163a3.42,3.42,0,0,0,3.29-1.89L53,163.39a6.9,6.9,0,0,1-3,3,9.77,9.77,0,0,1-4.65,1.05,9.38,9.38,0,0,1-4.53-1.05,7.41,7.41,0,0,1-3-3,9,9,0,0,1-1.07-4.46,9.25,9.25,0,0,1,1.08-4.54,7.52,7.52,0,0,1,3.05-3,10.15,10.15,0,0,1,9,0,7.48,7.48,0,0,1,3,2.93l-4,2.32A3.75,3.75,0,0,0,45.64,154.84Z"/><path class="cls-2" d="M68.21,151.85a5.59,5.59,0,0,1,2,4.48v10.91H64.74v-1.89a6,6,0,0,1-5.05,2.14,5.89,5.89,0,0,1-4.2-1.44,5,5,0,0,1-1.53-3.8,4.51,4.51,0,0,1,1.66-3.72,7.57,7.57,0,0,1,4.76-1.36h4.37V157a2.24,2.24,0,0,0-.82-1.86,3.75,3.75,0,0,0-2.37-.65,9.58,9.58,0,0,0-2.37.34,14.13,14.13,0,0,0-2.65,1L55,152.08a21.83,21.83,0,0,1,3.92-1.38,16.65,16.65,0,0,1,3.89-.45A8.21,8.21,0,0,1,68.21,151.85Zm-4.65,11.28a2.62,2.62,0,0,0,1.18-1.57v-1.46H61.45q-2.33,0-2.33,1.74a1.71,1.71,0,0,0,.6,1.38,2.49,2.49,0,0,0,1.66.51A3.89,3.89,0,0,0,63.56,163.13Z"/><path class="cls-2" d="M81.65,151a6.31,6.31,0,0,1,3.15-.77v5.05a8.33,8.33,0,0,0-.84,0,5.11,5.11,0,0,0-3.16.91,3.51,3.51,0,0,0-1.4,2.5v8.56H73.88V150.47H79.4v2.79A6,6,0,0,1,81.65,151Z"/><path class="cls-2" d="M100.88,152.7a9.49,9.49,0,0,1,2.2,6.63q0,.65,0,1H91.4a4,4,0,0,0,1.4,2.19,3.86,3.86,0,0,0,2.42.76,5.24,5.24,0,0,0,2.09-.43,5.92,5.92,0,0,0,1.84-1.27l2.88,2.88a8.49,8.49,0,0,1-3.15,2.22,10.85,10.85,0,0,1-4.17.76A10,10,0,0,1,90,166.37a7.32,7.32,0,0,1-3.08-3,9,9,0,0,1-1.07-4.46,9.25,9.25,0,0,1,1.08-4.54,7.5,7.5,0,0,1,3.07-3,9.52,9.52,0,0,1,4.59-1.07A8.08,8.08,0,0,1,100.88,152.7Zm-3.16,4.68a3.23,3.23,0,0,0-.85-2.34,3.24,3.24,0,0,0-4.43,0,4.32,4.32,0,0,0-1.16,2.36Z"/><path class="cls-2" d="M119.57,152.7a9.49,9.49,0,0,1,2.2,6.63q0,.65,0,1H110.09a4,4,0,0,0,1.4,2.19,3.86,3.86,0,0,0,2.42.76,5.24,5.24,0,0,0,2.09-.43,5.92,5.92,0,0,0,1.84-1.27l2.88,2.88a8.49,8.49,0,0,1-3.15,2.22,10.85,10.85,0,0,1-4.17.76,10,10,0,0,1-4.71-1.05,7.32,7.32,0,0,1-3.08-3,9,9,0,0,1-1.07-4.46,9.25,9.25,0,0,1,1.08-4.54,7.5,7.5,0,0,1,3.07-3,9.52,9.52,0,0,1,4.59-1.07A8.08,8.08,0,0,1,119.57,152.7Zm-3.16,4.68a3.23,3.23,0,0,0-.85-2.34,3.24,3.24,0,0,0-4.43,0,4.32,4.32,0,0,0-1.16,2.36Z"/><path class="cls-2" d="M132.36,151a6.31,6.31,0,0,1,3.15-.77v5.05a8.32,8.32,0,0,0-.84,0,5.1,5.1,0,0,0-3.16.91,3.5,3.5,0,0,0-1.4,2.5v8.56H124.6V150.47h5.52v2.79A6,6,0,0,1,132.36,151Z"/><path class="cls-2" d="M159.5,151.35a7.2,7.2,0,0,1,2.74,3,10.1,10.1,0,0,1,1,4.54,10,10,0,0,1-.95,4.46,7,7,0,0,1-2.7,3,7.69,7.69,0,0,1-4,1.05,6.66,6.66,0,0,1-2.87-.6,6,6,0,0,1-2.19-1.75v8.18H145V150.47h5.52v2.17a5.91,5.91,0,0,1,4.93-2.36A7.75,7.75,0,0,1,159.5,151.35Zm-2.84,10.46a4.39,4.39,0,0,0,1-3,4.45,4.45,0,0,0-1-3,3.31,3.31,0,0,0-2.62-1.16,3.22,3.22,0,0,0-2.57,1.16,4.49,4.49,0,0,0-1,3,4.43,4.43,0,0,0,1,3A3.24,3.24,0,0,0,154,163,3.32,3.32,0,0,0,156.66,161.81Z"/><path class="cls-2" d="M166.23,144.23h5.52v23h-5.52Z"/><path class="cls-2" d="M189.07,151.85a5.58,5.58,0,0,1,2,4.48v10.91H185.6v-1.89a6,6,0,0,1-5.05,2.14,5.89,5.89,0,0,1-4.2-1.44,5,5,0,0,1-1.54-3.8,4.5,4.5,0,0,1,1.66-3.72,7.56,7.56,0,0,1,4.76-1.36h4.37V157a2.23,2.23,0,0,0-.82-1.86,3.75,3.75,0,0,0-2.37-.65,9.58,9.58,0,0,0-2.37.34,14.11,14.11,0,0,0-2.65,1l-1.52-3.72a21.82,21.82,0,0,1,3.92-1.38,16.65,16.65,0,0,1,3.89-.45A8.22,8.22,0,0,1,189.07,151.85Zm-4.65,11.28a2.62,2.62,0,0,0,1.18-1.57v-1.46h-3.29q-2.32,0-2.32,1.74a1.71,1.71,0,0,0,.6,1.38,2.48,2.48,0,0,0,1.66.51A3.89,3.89,0,0,0,184.42,163.13Z"/><path class="cls-2" d="M210.23,152a6.5,6.5,0,0,1,1.66,4.68v10.57H206.4v-9a3.15,3.15,0,0,0-.77-2.25,2.72,2.72,0,0,0-2.08-.82,3.19,3.19,0,0,0-2.25.9,3.66,3.66,0,0,0-1,2.29v8.87h-5.52V150.47h5.52v2.73a6,6,0,0,1,2.31-2.2,6.84,6.84,0,0,1,3.24-.74A5.83,5.83,0,0,1,210.23,152Z"/></g></g></g></svg>