<svg xmlns="http://www.w3.org/2000/svg" viewBox="0 0 241.26 228.63"><defs><style>.cls-1{fill:#077183;}.cls-2{fill:#fff;}</style></defs><title>2CH</title><g id="Layer_2" data-name="Layer 2"><g id="Layer_1-2" data-name="Layer 1"><rect id="_Rectangle_" data-name="&lt;Rectangle&gt;" class="cls-1" width="241.26" height="228.63"/><g id="_Group_" data-name="&lt;Group&gt;"><path class="cls-2" d="M79,75.06V85.65H40.59l-.07-8.71L58.88,58.07a26,26,0,0,0,3.53-4.46,7.69,7.69,0,0,0,1.37-3.82,3.74,3.74,0,0,0-1.51-3.2A7,7,0,0,0,58,45.47a16.43,16.43,0,0,0-6.73,1.69,29.51,29.51,0,0,0-7.16,4.72l-5-9.72Q49.52,34.6,60,34.6a23.43,23.43,0,0,1,9,1.66,14.61,14.61,0,0,1,6.26,4.68,11.22,11.22,0,0,1,2.27,6.91,15.29,15.29,0,0,1-2.56,8,49.94,49.94,0,0,1-7.24,8.82L57.51,75.06Z"/></g><g id="_Group_2" data-name="&lt;Group&gt;"><path class="cls-2" d="M56.27,116.64H48.77v2.72h6.54v6.92a2.31,2.31,0,0,1-.85,1.53,2.7,2.7,0,0,1-1.63.61q-.92,0-2.29,0l-.79-2.33,2.54.12q.65-.18.65-.53v-4.09H48.77v10.5H46.41v-10.5H42.51v7.13H40.15v-9.4h6.27v-2.72h-8v-2.26h8v-3.22h-3.5A16.21,16.21,0,0,1,41.05,114l-2.13-1.07a17.37,17.37,0,0,0,3.47-7.36l2,.8a16.44,16.44,0,0,1-.65,2.63h2.63v-4.89h2.36V109H54.6v2.15H48.77v3.22h7.49Zm3.28,9H57.2V108.18h2.35ZM64.33,129a3.24,3.24,0,0,1-.64,2.16,3.16,3.16,0,0,1-2.38.79l-2.79.06-.8-2.39q2.47.23,3,.23,1.24,0,1.24-.94V104.33h2.36Z"/><path class="cls-2" d="M80.42,128.11l-5.83,3.19-1.39-2a2.21,2.21,0,0,0,.39-1.21V115.31H69.13v-2.26h6.92V127.9l4.37-2.45Zm-3.63-19.06-2,1.48a13.68,13.68,0,0,0-3.91-4.68l1.65-1.44A13.43,13.43,0,0,1,76.79,109.06Zm18.91-.5H89.25v20.74a2.49,2.49,0,0,1-.56,2,2.57,2.57,0,0,1-2,.78H82.94l-.79-2.51q1.91.15,3.1.15a5.77,5.77,0,0,0,1.34-.08q.22-.08.22-.49V108.56H79v-2.27H95.7Z"/><path class="cls-2" d="M112.44,124.06l-2.41.62v7.52h-2.36v-6.81l-7.19,1.92L99,125q2-.27,2.65-.42V108.06H99.86v-2.27h11.69v2.27H110v14.29q.47-.09,2.41-.62Zm-4.77-12.75v-3.25h-3.72v3.25Zm0,5.39v-3.12h-3.72v3.12Zm0,6.3v-4h-3.72v5Zm10.76.65a16.52,16.52,0,0,1-2.56,4.44,13.67,13.67,0,0,1-3.44,3.31l-1.76-1.71a7.36,7.36,0,0,0,2.25-1.63,15.86,15.86,0,0,0,1.94-2.57l1.88-3.07Zm6.6-3H113.47V106.38H125Zm-2.36-2.26v-9.73h-6.84v9.73Zm4.93,11.87-1.92,1.44a19.64,19.64,0,0,0-6.21-7.89l1.74-1.39Q123.93,124,127.61,130.25Z"/><path class="cls-2" d="M157.45,130.41H131.07v-2.27h9.05V105.27h2.42v22.87h3.6V105.27h2.32v22.87h9ZM138.29,124l-2.35,1a33.5,33.5,0,0,0-3.13-12l2-1A39.62,39.62,0,0,1,138.29,124Zm17.36-11.14q-1,7.89-4,12.53l-2-1.21q3.22-4.54,3.84-12.09Z"/><path class="cls-2" d="M173.82,128.17l-6.07,3.35-1.39-2a1.79,1.79,0,0,0,.47-1.3V114.95H162.3v-2.27h6.87v15.47l4.65-2.54ZM170,108.62l-2,1.48a14,14,0,0,0-4-4.68l1.68-1.42A13.87,13.87,0,0,1,170,108.62Zm19,7.1h-7.22v16.36h-2.36V115.72h-7.22v-2.27h7.22v-9.2h2.36v9.2H189Z"/><path class="cls-2" d="M210.61,126q-1.2,6-3.25,6-1.59,0-3.52-2.08a15.89,15.89,0,0,1-3-4.43,29.89,29.89,0,0,1-6.66,3.84l-1.83-2a27.68,27.68,0,0,0,7.57-4.19,39.15,39.15,0,0,1-2-8.29l-4.37.61-.3-2.23,4.36-.65q-.29-5.81-.24-8.37h2.45q0,1,0,2,0,2.76.3,6l9.14-1.39.32,2.3-9.2,1.36a35.82,35.82,0,0,0,1.51,7,28.78,28.78,0,0,0,4.59-6.45l1.86,1.36a27.05,27.05,0,0,1-5.53,7.43,12.76,12.76,0,0,0,2.39,3.91q1.45,1.58,1.89,1.58.21,0,1.24-4.22Zm-3.87-16.35-1.89,1.53a11.2,11.2,0,0,0-4.5-4.5l1.74-1.45A12.63,12.63,0,0,1,206.74,109.66Zm6.36,15.79h-2.35V107.91h2.35Zm5.71,3.84q0,2.72-3.5,2.66l-2,0-.85-2.39,3.22.09a.76.76,0,0,0,.71-.8V104.15h2.36Z"/></g></g></g></svg>