<svg xmlns="http://www.w3.org/2000/svg" viewBox="0 0 241.26 228.63"><defs><style>.cls-1{fill:#8951a0;}.cls-2{fill:#fff;}</style></defs><title>4</title><g id="Layer_2" data-name="Layer 2"><g id="Layer_1-2" data-name="Layer 1"><rect id="_Rectangle_" data-name="&lt;Rectangle&gt;" class="cls-1" width="241.26" height="228.63"/><g id="_Group_" data-name="&lt;Group&gt;"><path class="cls-2" d="M78.91,60.25v10H72.43V81.13H60.33V70.26H37.51V61.33L51.84,30.66H64.36L50.9,60.25h9.43V49.52h12.1V60.25Z"/></g><g id="_Group_2" data-name="&lt;Group&gt;"><path class="cls-2" d="M50.83,107a6,6,0,0,0-2.88-.79,5.64,5.64,0,0,0-3,.82,5.82,5.82,0,0,0-2.12,2.26,7,7,0,0,0,0,6.42A5.81,5.81,0,0,0,45,118a5.64,5.64,0,0,0,3,.82,6.58,6.58,0,0,0,2.79-.68,8.83,8.83,0,0,0,2.6-1.86l3.32,3.57a13.27,13.27,0,0,1-4.2,3,11.67,11.67,0,0,1-10.65-.39,10.87,10.87,0,0,1-4.09-4.06,11.3,11.3,0,0,1-1.49-5.77,10.83,10.83,0,0,1,5.69-9.7,12.36,12.36,0,0,1,10.71-.45,11.85,11.85,0,0,1,4,2.74l-3.29,4A8.11,8.11,0,0,0,50.83,107Z"/><path class="cls-2" d="M66.84,107.31a6.31,6.31,0,0,1,3.15-.77v5.05a8.33,8.33,0,0,0-.84,0,5.11,5.11,0,0,0-3.16.91,3.51,3.51,0,0,0-1.4,2.5v8.56H59.08V106.75h5.52v2.79A6,6,0,0,1,66.84,107.31Z"/><path class="cls-2" d="M86.08,109a9.49,9.49,0,0,1,2.2,6.63q0,.65,0,1H76.59a4,4,0,0,0,1.4,2.19,3.86,3.86,0,0,0,2.42.76,5.23,5.23,0,0,0,2.09-.43,5.91,5.91,0,0,0,1.84-1.27l2.88,2.88a8.49,8.49,0,0,1-3.15,2.22,10.85,10.85,0,0,1-4.17.76,10,10,0,0,1-4.71-1.05,7.32,7.32,0,0,1-3.08-3A9,9,0,0,1,71,115.21a9.25,9.25,0,0,1,1.08-4.54,7.5,7.5,0,0,1,3.07-3,9.52,9.52,0,0,1,4.59-1.07A8.08,8.08,0,0,1,86.08,109Zm-3.16,4.68a3.23,3.23,0,0,0-.85-2.34,3.24,3.24,0,0,0-4.43,0,4.32,4.32,0,0,0-1.16,2.36Z"/><path class="cls-2" d="M104.06,108.13a5.59,5.59,0,0,1,2,4.48v10.91h-5.42v-1.89a6,6,0,0,1-5.05,2.14,5.89,5.89,0,0,1-4.2-1.44,5,5,0,0,1-1.53-3.8,4.51,4.51,0,0,1,1.66-3.72,7.57,7.57,0,0,1,4.76-1.36h4.37v-.19a2.24,2.24,0,0,0-.82-1.86,3.75,3.75,0,0,0-2.37-.65,9.58,9.58,0,0,0-2.37.34,14.13,14.13,0,0,0-2.65,1l-1.52-3.72A21.83,21.83,0,0,1,94.77,107a16.65,16.65,0,0,1,3.89-.45A8.21,8.21,0,0,1,104.06,108.13Zm-4.65,11.28a2.62,2.62,0,0,0,1.18-1.57v-1.46H97.3q-2.33,0-2.33,1.74a1.71,1.71,0,0,0,.6,1.38,2.49,2.49,0,0,0,1.66.51A3.9,3.9,0,0,0,99.41,119.41Z"/><path class="cls-2" d="M120.64,122.65a8.3,8.3,0,0,1-2.14.82,10.31,10.31,0,0,1-2.45.29,5.66,5.66,0,0,1-4-1.43,5.11,5.11,0,0,1-1.53-3.94v-7.19h-2.32v-3.66h2.32V102.9H116v4.65h4.34v3.66H116v6.32q0,1.77,1.46,1.77a5.38,5.38,0,0,0,2.14-.56Z"/><path class="cls-2" d="M136.85,109a9.49,9.49,0,0,1,2.2,6.63q0,.65,0,1H127.37a4,4,0,0,0,1.4,2.19,3.86,3.86,0,0,0,2.42.76,5.23,5.23,0,0,0,2.09-.43,5.91,5.91,0,0,0,1.84-1.27l2.88,2.88a8.49,8.49,0,0,1-3.15,2.22,10.85,10.85,0,0,1-4.17.76,10,10,0,0,1-4.71-1.05,7.32,7.32,0,0,1-3.08-3,9,9,0,0,1-1.07-4.46,9.25,9.25,0,0,1,1.08-4.54,7.5,7.5,0,0,1,3.07-3,9.52,9.52,0,0,1,4.59-1.07A8.08,8.08,0,0,1,136.85,109Zm-3.16,4.68a3.23,3.23,0,0,0-.85-2.34,3.24,3.24,0,0,0-4.43,0,4.32,4.32,0,0,0-1.16,2.36Z"/><path class="cls-2" d="M44.1,165.85a6.79,6.79,0,0,1-4,1.13,7.9,7.9,0,0,1-2.6-.42,8.13,8.13,0,0,1-2.36-1.32l2.29-3.81a4.35,4.35,0,0,0,1.12.71,2.9,2.9,0,0,0,1.12.22,2.13,2.13,0,0,0,2-1.27l.4-.78-6.94-16.37h5.67l4,10.91,3.57-10.91h5.49l-7.19,18.41A7.64,7.64,0,0,1,44.1,165.85Z"/><path class="cls-2" d="M67.79,144.83a7.82,7.82,0,0,1,3.22,3,9.38,9.38,0,0,1,0,9,7.81,7.81,0,0,1-3.22,3,11.33,11.33,0,0,1-9.61,0,7.71,7.71,0,0,1-3.21-3,9.5,9.5,0,0,1,0-9,7.72,7.72,0,0,1,3.21-3,11.33,11.33,0,0,1,9.61,0Zm-7.41,4.54a5.1,5.1,0,0,0,0,6,3.28,3.28,0,0,0,2.6,1.15,3.31,3.31,0,0,0,2.63-1.15,4.48,4.48,0,0,0,1-3,4.4,4.4,0,0,0-1-3A3.32,3.32,0,0,0,63,148.23,3.28,3.28,0,0,0,60.38,149.37Z"/><path class="cls-2" d="M91.35,143.95v16.77H85.83V158a5.89,5.89,0,0,1-5.36,3,5.66,5.66,0,0,1-4.36-1.75,6.58,6.58,0,0,1-1.63-4.67v-10.6H80v9a3.21,3.21,0,0,0,.73,2.23,2.52,2.52,0,0,0,2,.81A2.87,2.87,0,0,0,85,154.94a4.18,4.18,0,0,0,.84-2.71v-8.28Z"/><path class="cls-2" d="M103.33,144.51a6.31,6.31,0,0,1,3.15-.78v5.05a8.36,8.36,0,0,0-.84,0,5.11,5.11,0,0,0-3.16.91,3.51,3.51,0,0,0-1.4,2.5v8.56H95.56V143.95h5.52v2.79A6,6,0,0,1,103.33,144.51Z"/><path class="cls-2" d="M128.36,144.83a7.82,7.82,0,0,1,3.22,3,9.38,9.38,0,0,1,0,9,7.81,7.81,0,0,1-3.22,3,11.33,11.33,0,0,1-9.61,0,7.71,7.71,0,0,1-3.21-3,9.5,9.5,0,0,1,0-9,7.72,7.72,0,0,1,3.21-3,11.33,11.33,0,0,1,9.61,0ZM121,149.37a5.1,5.1,0,0,0,0,6,3.28,3.28,0,0,0,2.6,1.15,3.31,3.31,0,0,0,2.63-1.15,4.48,4.48,0,0,0,1-3,4.4,4.4,0,0,0-1-3,3.32,3.32,0,0,0-2.62-1.15A3.28,3.28,0,0,0,121,149.37Z"/><path class="cls-2" d="M132.76,143.95h5.61l3.35,11.35L145,143.95h5.27l3.32,11.35,3.35-11.35h5.39l-6.14,16.77h-5.46l-3.19-10.35-3.22,10.35h-5.46Z"/><path class="cls-2" d="M179.77,145.47a6.5,6.5,0,0,1,1.66,4.68v10.57h-5.49v-9a3.14,3.14,0,0,0-.78-2.25,2.72,2.72,0,0,0-2.08-.82,3.19,3.19,0,0,0-2.25.9,3.65,3.65,0,0,0-1,2.29v8.87h-5.52V143.95h5.52v2.73a6,6,0,0,1,2.31-2.2,6.84,6.84,0,0,1,3.24-.74A5.83,5.83,0,0,1,179.77,145.47Z"/><path class="cls-2" d="M45.16,185.52a3,3,0,0,0-2.42,1.13,5.1,5.1,0,0,0,0,5.88,3,3,0,0,0,2.42,1.12,3.43,3.43,0,0,0,3.29-1.89l4.06,2.33a6.9,6.9,0,0,1-3,3,9.77,9.77,0,0,1-4.65,1.05,9.38,9.38,0,0,1-4.53-1.05,7.42,7.42,0,0,1-3-3,9,9,0,0,1-1.07-4.46,9.26,9.26,0,0,1,1.08-4.54,7.52,7.52,0,0,1,3.05-3,10.14,10.14,0,0,1,9,0,7.48,7.48,0,0,1,3,2.93l-4,2.32A3.75,3.75,0,0,0,45.16,185.52Z"/><path class="cls-2" d="M67.72,182.53a5.59,5.59,0,0,1,2,4.48v10.91H64.25V196a6,6,0,0,1-5.05,2.14,5.89,5.89,0,0,1-4.2-1.44,5,5,0,0,1-1.53-3.8,4.51,4.51,0,0,1,1.66-3.72,7.57,7.57,0,0,1,4.76-1.36h4.37v-.19a2.24,2.24,0,0,0-.82-1.86,3.75,3.75,0,0,0-2.37-.65,9.56,9.56,0,0,0-2.37.34,14.06,14.06,0,0,0-2.65,1l-1.52-3.72a21.86,21.86,0,0,1,3.92-1.38,16.62,16.62,0,0,1,3.89-.45A8.22,8.22,0,0,1,67.72,182.53Zm-4.65,11.28a2.62,2.62,0,0,0,1.18-1.57v-1.46H61q-2.33,0-2.33,1.74a1.71,1.71,0,0,0,.6,1.38,2.48,2.48,0,0,0,1.66.51A3.89,3.89,0,0,0,63.07,193.81Z"/><path class="cls-2" d="M81.16,181.71a6.31,6.31,0,0,1,3.15-.77V186a8.29,8.29,0,0,0-.84,0,5.11,5.11,0,0,0-3.16.92,3.51,3.51,0,0,0-1.4,2.5v8.56H73.4V181.15h5.52v2.79A6,6,0,0,1,81.16,181.71Z"/><path class="cls-2" d="M100.4,183.38a9.49,9.49,0,0,1,2.2,6.63c0,.43,0,.76,0,1H90.91a4,4,0,0,0,1.4,2.19,3.86,3.86,0,0,0,2.42.76,5.24,5.24,0,0,0,2.09-.43,5.93,5.93,0,0,0,1.84-1.27l2.88,2.88a8.49,8.49,0,0,1-3.15,2.22,10.85,10.85,0,0,1-4.17.76,10,10,0,0,1-4.71-1.05,7.32,7.32,0,0,1-3.08-3,9,9,0,0,1-1.07-4.46,9.26,9.26,0,0,1,1.08-4.54,7.5,7.5,0,0,1,3.07-3A9.52,9.52,0,0,1,94.11,181,8.08,8.08,0,0,1,100.4,183.38Zm-3.16,4.68a3.23,3.23,0,0,0-.85-2.34,3.24,3.24,0,0,0-4.43,0,4.32,4.32,0,0,0-1.16,2.36Z"/><path class="cls-2" d="M119.09,183.38a9.49,9.49,0,0,1,2.2,6.63c0,.43,0,.76,0,1H109.61a4,4,0,0,0,1.4,2.19,3.86,3.86,0,0,0,2.42.76,5.24,5.24,0,0,0,2.09-.43,5.93,5.93,0,0,0,1.84-1.27l2.88,2.88a8.49,8.49,0,0,1-3.15,2.22,10.85,10.85,0,0,1-4.17.76,10,10,0,0,1-4.71-1.05,7.32,7.32,0,0,1-3.08-3,9,9,0,0,1-1.07-4.46,9.26,9.26,0,0,1,1.08-4.54,7.5,7.5,0,0,1,3.07-3A9.52,9.52,0,0,1,112.8,181,8.08,8.08,0,0,1,119.09,183.38Zm-3.16,4.68a3.23,3.23,0,0,0-.85-2.34,3.24,3.24,0,0,0-4.43,0,4.32,4.32,0,0,0-1.16,2.36Z"/><path class="cls-2" d="M131.88,181.71a6.31,6.31,0,0,1,3.15-.77V186a8.29,8.29,0,0,0-.84,0,5.11,5.11,0,0,0-3.16.92,3.51,3.51,0,0,0-1.4,2.5v8.56h-5.52V181.15h5.52v2.79A6,6,0,0,1,131.88,181.71Z"/><path class="cls-2" d="M159,182a7.2,7.2,0,0,1,2.74,3,11,11,0,0,1,0,9,7,7,0,0,1-2.7,3,7.69,7.69,0,0,1-4,1.05,6.67,6.67,0,0,1-2.87-.6,6,6,0,0,1-2.19-1.75v8.18h-5.52V181.15H150v2.17a5.92,5.92,0,0,1,4.93-2.36A7.75,7.75,0,0,1,159,182Zm-2.84,10.46a4.39,4.39,0,0,0,1-3,4.45,4.45,0,0,0-1-3,3.3,3.3,0,0,0-2.62-1.16,3.22,3.22,0,0,0-2.57,1.16,4.49,4.49,0,0,0-1,3,4.43,4.43,0,0,0,1,3,3.24,3.24,0,0,0,2.57,1.15A3.32,3.32,0,0,0,156.18,192.5Z"/><path class="cls-2" d="M165.75,174.92h5.52v23h-5.52Z"/><path class="cls-2" d="M188.59,182.53a5.59,5.59,0,0,1,2,4.48v10.91h-5.42V196a6,6,0,0,1-5.05,2.14,5.89,5.89,0,0,1-4.2-1.44,5,5,0,0,1-1.53-3.8,4.51,4.51,0,0,1,1.66-3.72,7.57,7.57,0,0,1,4.76-1.36h4.37v-.19a2.24,2.24,0,0,0-.82-1.86,3.75,3.75,0,0,0-2.37-.65,9.56,9.56,0,0,0-2.37.34,14.06,14.06,0,0,0-2.65,1l-1.52-3.72a21.86,21.86,0,0,1,3.92-1.38,16.62,16.62,0,0,1,3.89-.45A8.22,8.22,0,0,1,188.59,182.53Zm-4.65,11.28a2.62,2.62,0,0,0,1.18-1.57v-1.46h-3.29q-2.33,0-2.33,1.74a1.71,1.71,0,0,0,.6,1.38,2.48,2.48,0,0,0,1.66.51A3.89,3.89,0,0,0,183.94,193.81Z"/><path class="cls-2" d="M209.75,182.67a6.5,6.5,0,0,1,1.66,4.68v10.57h-5.49v-9a3.14,3.14,0,0,0-.78-2.25,2.72,2.72,0,0,0-2.08-.82,3.18,3.18,0,0,0-2.25.9,3.65,3.65,0,0,0-1,2.29v8.87h-5.52V181.15h5.52v2.73a6,6,0,0,1,2.31-2.2,6.84,6.84,0,0,1,3.24-.74A5.82,5.82,0,0,1,209.75,182.67Z"/></g></g></g></svg>