<svg xmlns="http://www.w3.org/2000/svg" viewBox="0 0 241.26 228.63"><defs><style>.cls-1{fill:#8951a0;}.cls-2{fill:#fff;}</style></defs><title>4CH</title><g id="Layer_2" data-name="Layer 2"><g id="Layer_1-2" data-name="Layer 1"><rect id="_Rectangle_" data-name="&lt;Rectangle&gt;" class="cls-1" width="241.26" height="228.63"/><g id="_Group_" data-name="&lt;Group&gt;"><path class="cls-2" d="M78.91,60.25v10H72.43V81.13H60.33V70.26H37.51V61.33L51.84,30.66H64.36L50.9,60.25h9.43V49.52h12.1V60.25Z"/></g><g id="_Group_2" data-name="&lt;Group&gt;"><path class="cls-2" d="M55.78,110.12H48.29v2.72h6.54v6.92A2.31,2.31,0,0,1,54,121.3a2.7,2.7,0,0,1-1.63.61q-.92,0-2.29,0l-.79-2.33,2.54.12q.65-.18.65-.53v-4.09H48.29v10.5H45.93v-10.5H42v7.13H39.66v-9.4h6.27v-2.72h-8v-2.26h8v-3.22h-3.5a16.21,16.21,0,0,1-1.86,2.85l-2.13-1.07a17.37,17.37,0,0,0,3.47-7.36l2,.8a16.44,16.44,0,0,1-.65,2.63h2.63V97.61h2.36v4.89h5.83v2.15H48.29v3.22h7.49Zm3.28,9H56.72V101.66h2.35Zm4.78,3.38a3.24,3.24,0,0,1-.64,2.16,3.16,3.16,0,0,1-2.38.79l-2.79.06-.8-2.39q2.47.23,3,.23,1.24,0,1.24-.94V97.82h2.36Z"/><path class="cls-2" d="M79.94,121.6l-5.83,3.19-1.39-2a2.21,2.21,0,0,0,.39-1.21V108.79H68.65v-2.26h6.92v14.85l4.37-2.45Zm-3.63-19.06-2,1.48a13.68,13.68,0,0,0-3.91-4.68l1.65-1.44A13.43,13.43,0,0,1,76.31,102.54Zm18.91-.5H88.77v20.74a2.49,2.49,0,0,1-.56,2,2.57,2.57,0,0,1-2,.78H82.45L81.67,123q1.91.15,3.1.15a5.79,5.79,0,0,0,1.34-.08q.22-.08.22-.49V102H78.52V99.77h16.7Z"/><path class="cls-2" d="M108,98.56a44.68,44.68,0,0,1-1.54,4.65l-1.09,2.86v19.72H102.9V109.7a12.56,12.56,0,0,1-2.54,3.15L98,111.65q4.92-4.15,7.72-14Zm18.16,4.34a31.94,31.94,0,0,1-2.19,7l-2.16-.86a35.2,35.2,0,0,0,1.33-3.75h-5v17.17a2.91,2.91,0,0,1-.54,1.62,3.27,3.27,0,0,1-1.16,1.14,4.83,4.83,0,0,1-2.07.32q-.71,0-2-.09l-.74-2.27h2.88a1,1,0,0,0,1.18-1.17V105.27h-3.65a22,22,0,0,1-3.69,6.07l-2.45-.89a24,24,0,0,0,5.52-12.71l2.41.53a31.93,31.93,0,0,1-1,4.65Zm-11.93,8.22q-2.1,6.24-6.12,9.08l-1.92-1.59a16.22,16.22,0,0,0,5.87-8.52ZM127,119.46l-2.18,1.3q-2.15-6.21-5.45-9.05l2-1.27A21.42,21.42,0,0,1,127,119.46Z"/><path class="cls-2" d="M155.85,102.78q-.12,12.53-1.2,17.48t-3.82,4.94a22.08,22.08,0,0,1-4.83-1l-.41-2.6a17,17,0,0,0,4.87,1.3q1.33,0,2.16-4.88a85.87,85.87,0,0,0,.89-13.07h-6.61a25.47,25.47,0,0,1-3.59,6.51l-1.62-1v13.85h-2.44v-2H134.1v2.51h-2.45V103.25h2.85a18.25,18.25,0,0,0,1.89-5.46l2.24.91a18.72,18.72,0,0,1-1.68,4.56h4.74v6.31a28.85,28.85,0,0,0,4.66-12l2.47.56q-.41,1.83-1.33,4.68Zm-16.6,8.7v-6H134.1v6Zm0,8.46v-6.19H134.1v6.19Zm12.4-3.06-2.24,1a26.36,26.36,0,0,0-4.21-7.28l1.92-1.27A23.47,23.47,0,0,1,151.64,116.89Z"/><path class="cls-2" d="M174,117.54l-2.41.62v7.52h-2.36v-6.81L162,120.8l-1.53-2.3q2-.27,2.65-.42V101.54h-1.74V99.27h11.69v2.27h-1.51v14.29q.47-.09,2.41-.62Zm-4.77-12.75v-3.25h-3.72v3.25Zm0,5.39v-3.12h-3.72v3.12Zm0,6.3v-4h-3.72v5Zm10.76.65a16.51,16.51,0,0,1-2.56,4.43,13.68,13.68,0,0,1-3.44,3.32l-1.76-1.71a7.34,7.34,0,0,0,2.25-1.63,15.84,15.84,0,0,0,1.94-2.57l1.88-3.07Zm6.6-3H175V99.86h11.56Zm-2.36-2.26v-9.73h-6.84v9.73Zm4.93,11.87-1.92,1.44a19.64,19.64,0,0,0-6.21-7.89l1.74-1.39Q185.44,117.5,189.12,123.73Z"/><path class="cls-2" d="M219,123.9H192.59v-2.27h9.05V98.76h2.42v22.87h3.6V98.76H210v22.87h9Zm-19.16-6.45-2.35,1a33.52,33.52,0,0,0-3.13-12l2-1A39.61,39.61,0,0,1,199.81,117.45Zm17.36-11.14q-1,7.89-4,12.53l-2-1.21q3.22-4.54,3.84-12.09Z"/><path class="cls-2" d="M49.34,158.86l-6.07,3.35-1.39-2a1.79,1.79,0,0,0,.47-1.3V145.63H37.82v-2.27h6.87v15.47l4.65-2.54ZM45.57,139.3l-2,1.48a14,14,0,0,0-4-4.68l1.68-1.42A13.86,13.86,0,0,1,45.57,139.3Zm19,7.1H57.34v16.36H55V146.4H47.76v-2.27H55v-9.2h2.36v9.2h7.22Z"/><path class="cls-2" d="M86.13,156.69q-1.2,6-3.25,6-1.59,0-3.52-2.08a15.91,15.91,0,0,1-3-4.43A29.89,29.89,0,0,1,69.74,160l-1.83-2a27.7,27.7,0,0,0,7.57-4.19,39.15,39.15,0,0,1-2-8.29l-4.37.61-.3-2.22,4.36-.65q-.29-5.81-.24-8.37h2.45q0,1,0,2,0,2.76.3,6l9.14-1.39.32,2.3-9.2,1.36a35.67,35.67,0,0,0,1.51,7A28.78,28.78,0,0,0,82,145.75l1.86,1.36a27,27,0,0,1-5.52,7.43,12.76,12.76,0,0,0,2.39,3.91Q82.23,160,82.67,160q.21,0,1.24-4.22Zm-3.87-16.35-1.89,1.53a11.21,11.21,0,0,0-4.5-4.5l1.74-1.45A12.63,12.63,0,0,1,82.26,140.35Zm6.36,15.79H86.27V138.59h2.35ZM94.32,160q0,2.72-3.5,2.66l-2,0L88,160.22l3.22.09a.76.76,0,0,0,.71-.8V134.84h2.36Z"/></g></g></g></svg>