<svg xmlns="http://www.w3.org/2000/svg" viewBox="0 0 241.26 228.63"><defs><style>.cls-1{fill:#633570;}.cls-2{fill:#fff;}</style></defs><title>5CH</title><g id="Layer_2" data-name="Layer 2"><g id="Layer_1-2" data-name="Layer 1"><rect id="_Rectangle_" data-name="&lt;Rectangle&gt;" class="cls-1" width="241.26" height="228.63"/><g id="_Group_" data-name="&lt;Group&gt;"><path class="cls-2" d="M70.43,50.89a15.88,15.88,0,0,1,6.84,5.4,13.5,13.5,0,0,1,2.41,7.92,16.8,16.8,0,0,1-2.52,9.22A16.46,16.46,0,0,1,70,79.55a25.71,25.71,0,0,1-10.87,2.16A33.85,33.85,0,0,1,48.69,80a37.7,37.7,0,0,1-9.54-4.54l4.9-9.5q7,5.62,13.61,5.62a9,9,0,0,0,5.83-1.69,5.65,5.65,0,0,0,2.09-4.64,5.29,5.29,0,0,0-2.05-4.5q-2.05-1.55-6.16-1.55-9.58,0-13.82.29V30.66H77.45V41.24H55.64v7.7h4.54A25.32,25.32,0,0,1,70.43,50.89Z"/></g><g id="_Group_2" data-name="&lt;Group&gt;"><path class="cls-2" d="M47.61,117l-9.38,3.94-1.39-2q1.09-.38,4.68-1.83v-8.81H37.67V106h3.84V99.38h2.36V106H47.1v2.26H43.88V116l3.74-1.48Zm17.18-5.3H46.51v-2.27h6a9.39,9.39,0,0,0-3.1-4.77l1.83-1.09H47.69v-2.26h6.72V97.64h2.36v3.69h6.78v2.26H59.27l1.68.86a12.6,12.6,0,0,1-2.45,5h6.3Zm-2.48,13.82H60v-1.77H51.28v1.77H48.92V114h13.4Zm-2.35-4V116.3H51.28v5.21Zm-1.18-17.92H51.57a9.77,9.77,0,0,1,3.18,5l-1.67.83h2.39A11.21,11.21,0,0,0,58.79,103.59Z"/><path class="cls-2" d="M96.2,115.77l-1.53,2.16a20.32,20.32,0,0,1-7.28-3v10.6H85V114.38h1.53v-.06a14.42,14.42,0,0,1-2.8-2.39H80.11a9.06,9.06,0,0,1-2.45,2.39v.06h1.48q0,.83,0,1.53,0,7.9-5.71,9.69l-1.7-2a6.73,6.73,0,0,0,3-1.46,4.84,4.84,0,0,0,1.62-2.38,20,20,0,0,0,.36-4.59,22.55,22.55,0,0,1-7.54,2.75l-1.48-2.26q6.28-.86,9.2-3.75H68.67v-2.26H78.81a9.32,9.32,0,0,0,1-2.15H70.35v-2.26h10q0-.17.18-.82a4.08,4.08,0,0,0,.14-1H69.82v-2.27h7.72a7.89,7.89,0,0,0-3.13-2.41l2-1.24a8,8,0,0,1,3.69,2.85l-.74.8h4.53v-.06l-.85-.62a7.69,7.69,0,0,0,3.72-2.85l2,1a6.7,6.7,0,0,1-2.39,2.5h7.54v2.27H83l-.27,1.83H93.22v2.26h-11a14,14,0,0,1-.77,2.15H95v2.26H86.8V112A20,20,0,0,0,96.2,115.77Z"/><path class="cls-2" d="M108.22,98.56a44.68,44.68,0,0,1-1.54,4.65l-1.09,2.86v19.72h-2.48V109.7a12.56,12.56,0,0,1-2.54,3.15l-2.35-1.2q4.92-4.15,7.72-14Zm18.16,4.34a31.94,31.94,0,0,1-2.19,7L122,109a35.2,35.2,0,0,0,1.33-3.75h-5v17.17a2.91,2.91,0,0,1-.54,1.62,3.27,3.27,0,0,1-1.16,1.14,4.83,4.83,0,0,1-2.07.32q-.71,0-2-.09l-.74-2.27h2.88a1,1,0,0,0,1.18-1.17V105.27h-3.65a22,22,0,0,1-3.69,6.07l-2.45-.89a24,24,0,0,0,5.52-12.71l2.41.53a31.93,31.93,0,0,1-1,4.65Zm-11.93,8.22q-2.1,6.24-6.12,9.08l-1.92-1.59a16.22,16.22,0,0,0,5.87-8.52Zm12.75,8.34-2.18,1.3q-2.15-6.21-5.45-9.05l2-1.27A21.42,21.42,0,0,1,127.2,119.46Z"/><path class="cls-2" d="M156.05,102.78q-.12,12.53-1.2,17.48T151,125.2a22.1,22.1,0,0,1-4.83-1l-.41-2.6a17,17,0,0,0,4.87,1.3q1.33,0,2.16-4.88a85.81,85.81,0,0,0,.88-13.07h-6.61a25.5,25.5,0,0,1-3.59,6.51l-1.62-1v13.85h-2.44v-2H134.3v2.51h-2.45V103.25h2.85a18.23,18.23,0,0,0,1.89-5.46l2.24.91a18.73,18.73,0,0,1-1.68,4.56h4.74v6.31a28.85,28.85,0,0,0,4.66-12l2.47.56q-.41,1.83-1.33,4.68Zm-16.6,8.7v-6H134.3v6Zm0,8.46v-6.19H134.3v6.19Zm12.4-3.06-2.24,1a26.36,26.36,0,0,0-4.21-7.28l1.92-1.27A23.48,23.48,0,0,1,151.85,116.89Z"/><path class="cls-2" d="M171.9,113.38l-3.41,1.27v8.72a2.43,2.43,0,0,1-.66,1.79,2.37,2.37,0,0,1-1.76.67H163.5l-1.15-2.57a9.47,9.47,0,0,0,2.33.27q1.45,0,1.45-.83v-7.1L162.44,117l-1.57-2,5.27-1.83v-6.8H162v-2.26h4.15v-6h2.36v6h3.19v2.26H168.5v5.9L171.9,111Zm17.33,10.08-1.5,2.07a22.06,22.06,0,0,1-8.11-4.31,24.76,24.76,0,0,1-8,4.43l-1.76-2a20.69,20.69,0,0,0,8-4,20.51,20.51,0,0,1-4-7.16H172.4v-2.27h5.89V105H172v-2.26h6.3V98h2.35v4.81h7.16V105h-7.16v5.12h5.43a16.54,16.54,0,0,1-4.78,9.46Q183.78,121.83,189.23,123.46Zm-6-11h-6.78a17,17,0,0,0,3.25,5.62A14.38,14.38,0,0,0,183.21,112.42Z"/><path class="cls-2" d="M207.28,106.6l-2,1.27-.94-1.74-11,.59-.62-2.39,2.13-.06a41.31,41.31,0,0,0,3.88-6.92l2.36,1a42.4,42.4,0,0,1-3.5,5.89l5.48-.21a13.49,13.49,0,0,0-1.92-2.33l2.07-1.15A16.7,16.7,0,0,1,207.28,106.6Zm-1.74,15.71A2.7,2.7,0,0,1,205,124a2.29,2.29,0,0,1-1.23.83,18,18,0,0,1-3.54.14l-.88-2.38q1.73.18,2.45.18,1.33,0,1.33-.83v-2.92H196.7v6.18h-2.35V108.55h11.19Zm-2.36-9.64v-1.86H196.7v1.86Zm0,4.13v-1.86H196.7v1.86Zm16.5-11.08q-.74,5.56-3.32,5.56h-5.68a3,3,0,0,1-2.16-.94,2.37,2.37,0,0,1-.6-1.39V98.23h2.35v5a21.17,21.17,0,0,0,7.36-3.45l1.42,1.77a21.42,21.42,0,0,1-8.78,4v2.63q.14.88,1.59.88h4.09q1.08,0,1.45-4.16Zm.77,13.93q-.58,3.22-1.48,4.23a2.9,2.9,0,0,1-2.24,1H210.9a2.52,2.52,0,0,1-2.17-.92,2.93,2.93,0,0,1-.68-1.72v-9.92h2.35v4.3a19.75,19.75,0,0,0,7.48-3.35l1.62,1.74a21.77,21.77,0,0,1-9.1,3.94v2.88q0,.79,1.06.79h5a1.18,1.18,0,0,0,1.09-.86,12.51,12.51,0,0,0,.58-3.24Z"/></g></g></g></svg>