<svg xmlns="http://www.w3.org/2000/svg" viewBox="0 0 241.26 228.63"><defs><style>.cls-1{fill:#43214e;}.cls-2{fill:#fff;}</style></defs><title>6CH</title><g id="Layer_2" data-name="Layer 2"><g id="Layer_1-2" data-name="Layer 1"><rect id="_Rectangle_" data-name="&lt;Rectangle&gt;" class="cls-1" width="241.26" height="228.63"/><g id="_Group_" data-name="&lt;Group&gt;"><path class="cls-2" d="M62.7,40.92a19,19,0,0,0-5.58-.83q-5.83,0-8.75,3.49T45.6,53.34q3.82-5.4,11.74-5.4A16.93,16.93,0,0,1,65.8,50a14.12,14.12,0,0,1,5.62,5.76,18,18,0,0,1,2,8.6,17.8,17.8,0,0,1-2.3,9.18,15.42,15.42,0,0,1-6.52,6,21.39,21.39,0,0,1-9.76,2.12,21.11,21.11,0,0,1-11.45-3A19.55,19.55,0,0,1,36,70a31.62,31.62,0,0,1-2.59-13.28,32.66,32.66,0,0,1,2.84-14,21.58,21.58,0,0,1,8-9.32,22.16,22.16,0,0,1,12.1-3.28,33.34,33.34,0,0,1,8.53,1.15,29.71,29.71,0,0,1,7.52,3l-4.9,9.07A15.24,15.24,0,0,0,62.7,40.92ZM48.95,59.35a7.51,7.51,0,0,0-.11,10,7.25,7.25,0,0,0,5.47,1.94,7.45,7.45,0,0,0,5.33-1.84,6.83,6.83,0,0,0,1.94-5.22,6.79,6.79,0,0,0-1.87-5.08,7.09,7.09,0,0,0-5.18-1.84A7.55,7.55,0,0,0,48.95,59.35Z"/></g><g id="_Group_2" data-name="&lt;Group&gt;"><path class="cls-2" d="M57.33,124.17l-2.36.06V122H36.68v2.44H34.32V100.15h23ZM55,119.68v-17.3H36.68v17.3Zm-3.44-3.47H40V105.83H51.53ZM49.17,114v-5.92H42.36V114Z"/><path class="cls-2" d="M76.76,101.27H67.33V111.8a35.91,35.91,0,0,1-.72,8.27,11.84,11.84,0,0,1-2.31,4.75l-1.86-1.65a9.78,9.78,0,0,0,2.25-4.62,42.64,42.64,0,0,0,.45-7.06V99.12H76.76Zm.18,18.62q-5.22,3.06-7,4L68.8,121.6a1.23,1.23,0,0,0,.33-.83v-16.5h7.28l0,5.71a21.7,21.7,0,0,1-.29,4,2.08,2.08,0,0,1-1,1.49,5,5,0,0,1-2.21.36,2.84,2.84,0,0,1-.63-.08,19.79,19.79,0,0,0-.5-2.19,5.32,5.32,0,0,0,1.17.17A1.05,1.05,0,0,0,74,112.9a9.6,9.6,0,0,0,.28-2.79l-.08-3.69H71.37v13.85a30.85,30.85,0,0,0,2.82-1.35l2.75-1.43Zm7.42-11.84q0,1,0,2,0,7.33-1.85,10.34a13.91,13.91,0,0,1-5.81,5l-1.51-1.8q4.33-2.33,5.67-4.71t1.34-7.11l0-3.68Zm5.8-6.75H84.3q-.08.32-.24,1.49a9.63,9.63,0,0,1-.29,1.51h4.89V118H86.47V106.57H80.2v12.25H78V104.3l3.44,0a7.94,7.94,0,0,0,.3-1.63c.09-.79.16-1.27.2-1.43H77.2V99.12h13Zm.71,22.63L89,125.41a23.53,23.53,0,0,0-5.15-6.27l1.77-1.24A22.26,22.26,0,0,1,90.87,123.93Z"/><path class="cls-2" d="M102.83,98.56a44.68,44.68,0,0,1-1.54,4.65l-1.09,2.86v19.72H97.71V109.7a12.56,12.56,0,0,1-2.54,3.15l-2.35-1.2q4.92-4.15,7.72-14ZM121,102.9a31.94,31.94,0,0,1-2.19,7l-2.17-.86a35.2,35.2,0,0,0,1.33-3.75h-5v17.17a2.91,2.91,0,0,1-.54,1.62,3.27,3.27,0,0,1-1.16,1.14,4.83,4.83,0,0,1-2.07.32q-.71,0-2-.09l-.74-2.27h2.88a1,1,0,0,0,1.18-1.17V105.27H106.9a22,22,0,0,1-3.69,6.07l-2.45-.89a24,24,0,0,0,5.52-12.71l2.41.53a32,32,0,0,1-1,4.65Zm-11.93,8.22q-2.1,6.24-6.12,9.08L101,118.62a16.21,16.21,0,0,0,5.87-8.52Zm12.75,8.34-2.18,1.3q-2.15-6.21-5.45-9.05l2-1.27A21.42,21.42,0,0,1,121.81,119.46Z"/><path class="cls-2" d="M150.66,102.78q-.12,12.53-1.2,17.48t-3.82,4.94a22.1,22.1,0,0,1-4.83-1l-.41-2.6a17,17,0,0,0,4.87,1.3q1.33,0,2.16-4.88a85.81,85.81,0,0,0,.88-13.07H141.7a25.5,25.5,0,0,1-3.59,6.51l-1.62-1v13.85h-2.44v-2h-5.15v2.51h-2.45V103.25h2.85a18.23,18.23,0,0,0,1.89-5.46l2.24.91a18.73,18.73,0,0,1-1.68,4.56h4.74v6.31a28.85,28.85,0,0,0,4.66-12l2.47.56q-.41,1.83-1.33,4.68Zm-16.6,8.7v-6h-5.15v6Zm0,8.46v-6.19h-5.15v6.19Zm12.4-3.06-2.24,1a26.36,26.36,0,0,0-4.21-7.28l1.92-1.27A23.48,23.48,0,0,1,146.45,116.89Z"/><path class="cls-2" d="M168.76,117.54l-2.41.62v7.52H164v-6.81l-7.19,1.92-1.53-2.3q2-.27,2.65-.42V101.54h-1.74V99.27h11.69v2.27h-1.51v14.29q.47-.09,2.41-.62ZM164,104.8v-3.25h-3.72v3.25Zm0,5.39v-3.12h-3.72v3.12Zm0,6.3v-4h-3.72v5Zm10.76.65a16.51,16.51,0,0,1-2.56,4.43,13.69,13.69,0,0,1-3.44,3.32L167,123.17a7.35,7.35,0,0,0,2.25-1.63A15.78,15.78,0,0,0,171.2,119l1.88-3.07Zm6.6-3H169.79V99.86h11.56ZM179,111.86v-9.73h-6.84v9.73Zm4.93,11.87L182,125.17a19.64,19.64,0,0,0-6.21-7.89l1.74-1.39Q180.25,117.5,183.93,123.73Z"/><path class="cls-2" d="M213.78,123.9H187.4v-2.27h9.05V98.76h2.42v22.87h3.6V98.76h2.32v22.87h9Zm-19.16-6.45-2.35,1a33.5,33.5,0,0,0-3.13-12l2-1A39.62,39.62,0,0,1,194.62,117.45ZM212,106.31q-1,7.89-4,12.53l-2-1.21q3.22-4.54,3.84-12.09Z"/><path class="cls-2" d="M44.14,158.86l-6.07,3.35-1.39-2a1.79,1.79,0,0,0,.47-1.3V145.63H32.62v-2.27H39.5v15.47l4.65-2.54ZM40.37,139.3l-2,1.48a14,14,0,0,0-4-4.68l1.68-1.42A13.86,13.86,0,0,1,40.37,139.3Zm19,7.1H52.15v16.36H49.79V146.4H42.57v-2.27h7.22v-9.2h2.36v9.2h7.22Z"/><path class="cls-2" d="M80.94,156.69q-1.2,6-3.25,6-1.59,0-3.52-2.08a15.9,15.9,0,0,1-3-4.43A29.89,29.89,0,0,1,64.55,160l-1.83-2a27.69,27.69,0,0,0,7.57-4.19,39.15,39.15,0,0,1-2-8.29l-4.37.61-.3-2.22L68,143.3q-.29-5.81-.24-8.37h2.45q0,1,0,2,0,2.76.3,6l9.14-1.39.32,2.3-9.2,1.36a35.82,35.82,0,0,0,1.51,7,28.75,28.75,0,0,0,4.59-6.45l1.86,1.36a27.05,27.05,0,0,1-5.53,7.43,12.77,12.77,0,0,0,2.39,3.91Q77,160,77.47,160q.21,0,1.24-4.22Zm-3.87-16.35-1.89,1.53a11.2,11.2,0,0,0-4.5-4.5l1.74-1.45A12.63,12.63,0,0,1,77.07,140.35Zm6.36,15.79H81.08V138.59h2.35ZM89.13,160q0,2.72-3.5,2.66l-2,0-.85-2.39,3.22.09a.76.76,0,0,0,.71-.8V134.84h2.36Z"/></g></g></g></svg>