<svg xmlns="http://www.w3.org/2000/svg" viewBox="0 0 241.26 228.63"><defs><style>.cls-1{fill:#faa61a;}.cls-2{fill:#fff;}</style></defs><title>7CH</title><g id="Layer_2" data-name="Layer 2"><g id="Layer_1-2" data-name="Layer 1"><rect id="_Rectangle_" data-name="&lt;Rectangle&gt;" class="cls-1" width="241.26" height="228.63"/><g id="_Group_" data-name="&lt;Group&gt;"><path class="cls-2" d="M39.16,31.18H79.41v9.14l-19,41.33h-14L64.8,41.76h-14l-.07,7.13H39.16Z"/></g><g id="_Group_2" data-name="&lt;Group&gt;"><path class="cls-2" d="M47.11,114.9l-3.38,1.18v8.25a2.67,2.67,0,0,1-.58,1.79,2.18,2.18,0,0,1-1.39.79,24.17,24.17,0,0,1-2.88.11l-.83-2.23q.7.06,1.63.06,1.68,0,1.68-.94V117l-3.31,1.17-1.21-2.32,4.53-1.33v-6.83H37.65v-2.23h3.72V99.37h2.36v6.15H47v2.23H43.73v5.89l3.38-1.07ZM65,125.07,63.32,127a23.28,23.28,0,0,0-6.51-3.6q-3.47,2.57-10.54,3.88L44.72,125q7.14-1.07,9.14-2.54a50.27,50.27,0,0,0-6.25-1.09,24.7,24.7,0,0,0,3.25-3.87h-4v-2.22h5.36a15.39,15.39,0,0,0,1.36-2.92h-7.4v-2.22h5.72a10,10,0,0,0-3-4.59l1.8-.8H47v-2.24h6.89v-3.1h2.35v3.1h7.51v2.24H60l1.77.83a24.07,24.07,0,0,1-2.8,4.56h6v2.22H54.12l1.86.94a12.59,12.59,0,0,1-1,2h9.34v2.22H61a14.83,14.83,0,0,1-2.54,4A30.43,30.43,0,0,1,65,125.07Zm-5.59-20.3H51a10.55,10.55,0,0,1,3.25,4.86l-1.39.5v0h3.47A26.36,26.36,0,0,0,59.39,104.77Zm-1,12.76H53.83q-1.17,1.67-1.63,2.3l3.91.92A7.14,7.14,0,0,0,58.39,117.53Z"/><path class="cls-2" d="M94.91,103.47H82v23.4H79.56v-23.4H69.12v-2.36H94.91Zm-2.23,13.29-1.74,1.83a24.4,24.4,0,0,0-8-6.63l1.44-1.59A21.48,21.48,0,0,1,92.69,116.76Z"/><path class="cls-2" d="M127,123.27l-1.53,1.86a20.84,20.84,0,0,1-11.4-10.85v12.53h-2.36V114.22q-2.89,7.54-11.1,10.79L99,123.24a25.64,25.64,0,0,0,6.69-4,15.8,15.8,0,0,0,3.6-4.83H99.85v-2.27h11.81V105H101v-2.26h10.64V99.31h2.42v3.48H125V105H114.08v7.1h12.08v2.27h-9.54a16.59,16.59,0,0,0,4.28,5.18A20.58,20.58,0,0,0,127,123.27Zm-17.21-12.78-2,1.35a11.59,11.59,0,0,0-4.34-5.31l1.86-1.24A11,11,0,0,1,109.79,110.49Zm12.71-3.94a14.47,14.47,0,0,1-4.47,5.28l-2-1.38a16.32,16.32,0,0,0,4.53-5Z"/><path class="cls-2" d="M155.85,104.3q-.12,12.53-1.2,17.48t-3.82,4.94a22.14,22.14,0,0,1-4.83-1l-.41-2.6a17,17,0,0,0,4.87,1.3q1.33,0,2.16-4.88a85.85,85.85,0,0,0,.89-13.07h-6.61a25.47,25.47,0,0,1-3.59,6.51l-1.62-1v13.85h-2.44v-2H134.1v2.51h-2.45V104.77h2.85a18.25,18.25,0,0,0,1.89-5.46l2.24.91a18.74,18.74,0,0,1-1.68,4.56h4.74v6.31a28.85,28.85,0,0,0,4.66-12l2.47.56q-.41,1.83-1.33,4.68Zm-16.6,8.7v-6H134.1v6Zm0,8.46v-6.19H134.1v6.19Zm12.4-3.06-2.24,1a26.37,26.37,0,0,0-4.21-7.28l1.92-1.27A23.48,23.48,0,0,1,151.64,118.41Z"/><path class="cls-2" d="M186.55,114a20.69,20.69,0,0,1-4.6,6.61,21.85,21.85,0,0,1-7.11,3.85,55.28,55.28,0,0,1-12.69,2.46l-.86-2.39q8.7-.82,13.06-2.45a17.19,17.19,0,0,0,6.39-3.73,20.75,20.75,0,0,0,3.71-5.75Zm-14.26.21a24.3,24.3,0,0,1-8.87,6.95l-1.74-1.92a23.1,23.1,0,0,0,8.69-6.45Zm16.12-2.66H177.35v7.07a2.34,2.34,0,0,1-.67,1.58,2,2,0,0,1-1.54.75H173l-.86-2.36,2.16.06q.56,0,.56-.59v-6.51H162.56v-2.26H167V102h2.44v7.27h5.15V99.15H177v4h9.82v2.27H177v3.88h11.38Z"/><path class="cls-2" d="M198.45,118.56l-5.8,2.45-1.33-2.33a45.29,45.29,0,0,0,7.13-2.51Zm3.39-6a39.82,39.82,0,0,1-.83,8.66q-.87,4.12-1.83,4.87a3.74,3.74,0,0,1-2.38.76,9.6,9.6,0,0,1-2.23-.47l-.53-2.57a9.73,9.73,0,0,0,2.8.77,1,1,0,0,0,.86-.51,12.81,12.81,0,0,0,.88-2.65,36.06,36.06,0,0,0,.8-6.6H193v-1.39q.85-6.24,1.12-9.29l2.07.62a72.47,72.47,0,0,1-1,7.81h2.15q.29-2.1.86-9.49h-5.86V100.9h8.28q-.62,8.64-1,11.63Zm8.92-2.3-1.21.35v1.67h-2.23v-1.09l-5.15,1.21-1.06-2.25a5.75,5.75,0,0,0,1.59-.18V103h-1.3V100.9h9.05V103h-.91v5.33l1.21-.27Zm-2.32,10.47a11.62,11.62,0,0,1-5.71,5.15l-1.36-1.92a14,14,0,0,0,5.57-4.53Zm-.65-3.59a10.39,10.39,0,0,1-4.59,4l-1.24-2a9.6,9.6,0,0,0,4.18-3.32Zm12.28,6.72-1.74,1.68a15.24,15.24,0,0,1-7.07-10.44h-.06v12.25h-2.36V115.25l-5.45.18-1-2.29q1.6.08,3.25.08a38.55,38.55,0,0,0,10.7-1.23l.92,1.8a26.39,26.39,0,0,1-4.33,1,6.69,6.69,0,0,0,.86,2.36,13.6,13.6,0,0,0,3.72-2.63l1.39,1.6a13.63,13.63,0,0,1-4.09,2.83A20.4,20.4,0,0,0,220.06,123.83Zm-12.75-14.91v-.53H205l0,1.12Zm0-5.15V103h-2.26v.74Zm0,2.6v-.62h-2.26v.62Zm11.9,4.16-1.57,1.67a9.59,9.59,0,0,0-2.33-2.57,7,7,0,0,1-3,2.72l-1.8-1.67a6,6,0,0,0,2.94-2.51,12.52,12.52,0,0,0-3.06-1.65l1.3-1.42a11.18,11.18,0,0,1,3,1.42,6.87,6.87,0,0,0,1-2.17h-4.65v-2.27h7.4a13.45,13.45,0,0,1-1.79,5.68A14.88,14.88,0,0,1,219.21,110.54Z"/></g></g></g></svg>