<svg xmlns="http://www.w3.org/2000/svg" viewBox="0 0 241.26 228.63"><defs><style>.cls-1{fill:#f68b1f;}.cls-2{fill:#fff;}</style></defs><title>8</title><g id="Layer_2" data-name="Layer 2"><g id="Layer_1-2" data-name="Layer 1"><rect id="_Rectangle_" data-name="&lt;Rectangle&gt;" class="cls-1" width="241.26" height="228.63"/><g id="_Group_" data-name="&lt;Group&gt;"><path class="cls-2" d="M71.62,34.31a11.93,11.93,0,0,1,4.82,10,11.58,11.58,0,0,1-1.62,5.94,12.41,12.41,0,0,1-4.36,4.43,14.72,14.72,0,0,1,6.26,5.22,13.3,13.3,0,0,1,2.3,7.6,12.75,12.75,0,0,1-2.48,7.81,15.64,15.64,0,0,1-7.09,5.15,29.38,29.38,0,0,1-10.73,1.8A29.08,29.08,0,0,1,48,80.42a16.13,16.13,0,0,1-7.09-5.08,12.21,12.21,0,0,1-2.52-7.67,12.92,12.92,0,0,1,2.52-7.74,15.76,15.76,0,0,1,6.7-5.29A14.07,14.07,0,0,1,42.82,50a11.23,11.23,0,0,1-1.8-6,11.83,11.83,0,0,1,2.16-7.06,13.61,13.61,0,0,1,6.16-4.64,24.7,24.7,0,0,1,9.32-1.62Q66.8,30.6,71.62,34.31ZM52.87,61.67a6.28,6.28,0,0,0,0,9.29,9.28,9.28,0,0,0,5.87,1.62A9.45,9.45,0,0,0,64.64,71a6.21,6.21,0,0,0,0-9.29A9.45,9.45,0,0,0,58.73,60,9.28,9.28,0,0,0,52.87,61.67Zm.86-20.77A5,5,0,0,0,52,45a4.81,4.81,0,0,0,1.76,4,7.86,7.86,0,0,0,5,1.4,7.84,7.84,0,0,0,5-1.4,4.86,4.86,0,0,0,1.73-4,5,5,0,0,0-1.73-4.1,7.7,7.7,0,0,0-5-1.44A7.73,7.73,0,0,0,53.73,40.9Z"/></g><g id="_Group_2" data-name="&lt;Group&gt;"><path class="cls-2" d="M50.88,125l-3.16-6H43.5v6H37.83V103.31h9.77a10.07,10.07,0,0,1,6.68,2,7,7,0,0,1,2.37,5.63,8.57,8.57,0,0,1-1,4.23,6.86,6.86,0,0,1-2.88,2.77l4.53,7.1ZM43.5,114.5h4.12a3.82,3.82,0,0,0,2.68-.87,3.24,3.24,0,0,0,.95-2.51,3.11,3.11,0,0,0-.95-2.43,3.87,3.87,0,0,0-2.68-.85H43.5Z"/><path class="cls-2" d="M73.94,110.5a9.49,9.49,0,0,1,2.2,6.63c0,.43,0,.76,0,1H64.45a4,4,0,0,0,1.4,2.19,3.86,3.86,0,0,0,2.42.76,5.24,5.24,0,0,0,2.09-.43,5.93,5.93,0,0,0,1.84-1.27l2.88,2.88a8.49,8.49,0,0,1-3.15,2.22,10.85,10.85,0,0,1-4.17.76,10,10,0,0,1-4.71-1.05,7.32,7.32,0,0,1-3.08-3,9,9,0,0,1-1.07-4.46A9.26,9.26,0,0,1,60,112.19a7.5,7.5,0,0,1,3.07-3,9.52,9.52,0,0,1,4.59-1.07A8.08,8.08,0,0,1,73.94,110.5Zm-3.16,4.68a3.23,3.23,0,0,0-.85-2.34,3.24,3.24,0,0,0-4.43,0,4.32,4.32,0,0,0-1.16,2.36Z"/><path class="cls-2" d="M84.82,111.86a2.19,2.19,0,0,0-1.15.26.86.86,0,0,0-.43.79,1,1,0,0,0,.68.9,12.6,12.6,0,0,0,2.17.74,27.22,27.22,0,0,1,3,1,5.48,5.48,0,0,1,2.06,1.55,4.09,4.09,0,0,1,.87,2.71,4.66,4.66,0,0,1-2,4,8.48,8.48,0,0,1-5.13,1.44,13.75,13.75,0,0,1-4.09-.6,10.82,10.82,0,0,1-3.47-1.78l1.74-3.57a12.2,12.2,0,0,0,3,1.54,9.06,9.06,0,0,0,3,.54,2.68,2.68,0,0,0,1.29-.26.83.83,0,0,0,.48-.76,1.06,1.06,0,0,0-.7-1,13.2,13.2,0,0,0-2.19-.74,24.61,24.61,0,0,1-2.91-1,5.5,5.5,0,0,1-2-1.53,4,4,0,0,1-.85-2.67,4.7,4.7,0,0,1,1.92-4A8,8,0,0,1,85,108a13.47,13.47,0,0,1,7,2l-1.86,3.6A12.28,12.28,0,0,0,84.82,111.86Z"/><path class="cls-2" d="M107.58,109.15a7.82,7.82,0,0,1,3.22,3,9.38,9.38,0,0,1,0,9,7.82,7.82,0,0,1-3.22,3,11.33,11.33,0,0,1-9.61,0,7.72,7.72,0,0,1-3.21-3,9.49,9.49,0,0,1,0-9,7.72,7.72,0,0,1,3.21-3,11.33,11.33,0,0,1,9.61,0Zm-7.41,4.54a4.43,4.43,0,0,0-1,3,4.48,4.48,0,0,0,1,3,3.28,3.28,0,0,0,2.6,1.15,3.31,3.31,0,0,0,2.63-1.15,4.48,4.48,0,0,0,1-3,4.39,4.39,0,0,0-1-3,3.32,3.32,0,0,0-2.62-1.15A3.28,3.28,0,0,0,100.17,113.69Z"/><path class="cls-2" d="M131.13,108.27V125h-5.52v-2.73a5.89,5.89,0,0,1-5.36,3,5.66,5.66,0,0,1-4.36-1.75,6.58,6.58,0,0,1-1.63-4.67v-10.6h5.52v9a3.21,3.21,0,0,0,.73,2.23,2.52,2.52,0,0,0,2,.81,2.87,2.87,0,0,0,2.29-1.07,4.19,4.19,0,0,0,.84-2.71v-8.28Z"/><path class="cls-2" d="M143.12,108.83a6.31,6.31,0,0,1,3.15-.77v5.05a8.29,8.29,0,0,0-.84,0,5.1,5.1,0,0,0-3.16.92,3.5,3.5,0,0,0-1.4,2.5V125h-5.52V108.27h5.52v2.79A6,6,0,0,1,143.12,108.83Z"/><path class="cls-2" d="M156.21,112.64a3,3,0,0,0-2.42,1.13,5.11,5.11,0,0,0,0,5.88,3,3,0,0,0,2.42,1.12,3.43,3.43,0,0,0,3.29-1.89l4.06,2.33a6.9,6.9,0,0,1-3,3,9.76,9.76,0,0,1-4.65,1.05,9.38,9.38,0,0,1-4.53-1.05,7.42,7.42,0,0,1-3-3,9,9,0,0,1-1.07-4.46,9.26,9.26,0,0,1,1.08-4.54,7.52,7.52,0,0,1,3.05-3,10.14,10.14,0,0,1,9,0,7.47,7.47,0,0,1,3,2.93l-4,2.32A3.75,3.75,0,0,0,156.21,112.64Z"/><path class="cls-2" d="M179.31,110.5a9.49,9.49,0,0,1,2.2,6.63c0,.43,0,.76,0,1H169.82a4,4,0,0,0,1.4,2.19,3.86,3.86,0,0,0,2.42.76,5.24,5.24,0,0,0,2.09-.43,5.92,5.92,0,0,0,1.84-1.27l2.88,2.88a8.5,8.5,0,0,1-3.15,2.22,10.85,10.85,0,0,1-4.17.76,10,10,0,0,1-4.71-1.05,7.32,7.32,0,0,1-3.08-3,9,9,0,0,1-1.07-4.46,9.26,9.26,0,0,1,1.08-4.54,7.5,7.5,0,0,1,3.07-3,9.52,9.52,0,0,1,4.59-1.07A8.08,8.08,0,0,1,179.31,110.5Zm-3.16,4.68a3.23,3.23,0,0,0-.85-2.34,3.24,3.24,0,0,0-4.43,0,4.32,4.32,0,0,0-1.16,2.36Z"/><path class="cls-2" d="M190.19,111.86a2.19,2.19,0,0,0-1.15.26.86.86,0,0,0-.43.79,1,1,0,0,0,.68.9,12.57,12.57,0,0,0,2.17.74,27.24,27.24,0,0,1,3,1,5.49,5.49,0,0,1,2.06,1.55,4.09,4.09,0,0,1,.87,2.71,4.66,4.66,0,0,1-2,4,8.48,8.48,0,0,1-5.13,1.44,13.75,13.75,0,0,1-4.09-.6,10.83,10.83,0,0,1-3.47-1.78l1.74-3.57a12.2,12.2,0,0,0,3,1.54,9.06,9.06,0,0,0,3,.54,2.68,2.68,0,0,0,1.29-.26.83.83,0,0,0,.48-.76,1.05,1.05,0,0,0-.7-1,13.27,13.27,0,0,0-2.19-.74,24.48,24.48,0,0,1-2.91-1,5.5,5.5,0,0,1-2-1.53,4,4,0,0,1-.85-2.67,4.7,4.7,0,0,1,1.92-4,8,8,0,0,1,5-1.44,13.47,13.47,0,0,1,7,2l-1.86,3.6A12.28,12.28,0,0,0,190.19,111.86Z"/></g></g></g></svg>