<svg xmlns="http://www.w3.org/2000/svg" viewBox="0 0 241.26 228.63"><defs><style>.cls-1{fill:#f68b1f;}.cls-2{fill:#fff;}</style></defs><title>8CH</title><g id="Layer_2" data-name="Layer 2"><g id="Layer_1-2" data-name="Layer 1"><rect id="_Rectangle_" data-name="&lt;Rectangle&gt;" class="cls-1" width="241.26" height="228.63"/><g id="_Group_" data-name="&lt;Group&gt;"><path class="cls-2" d="M71.62,34.31a11.93,11.93,0,0,1,4.82,10,11.58,11.58,0,0,1-1.62,5.94,12.41,12.41,0,0,1-4.36,4.43,14.72,14.72,0,0,1,6.26,5.22,13.3,13.3,0,0,1,2.3,7.6,12.75,12.75,0,0,1-2.48,7.81,15.64,15.64,0,0,1-7.09,5.15,29.38,29.38,0,0,1-10.73,1.8A29.08,29.08,0,0,1,48,80.42a16.13,16.13,0,0,1-7.09-5.08,12.21,12.21,0,0,1-2.52-7.67,12.92,12.92,0,0,1,2.52-7.74,15.76,15.76,0,0,1,6.7-5.29A14.07,14.07,0,0,1,42.82,50a11.23,11.23,0,0,1-1.8-6,11.83,11.83,0,0,1,2.16-7.06,13.61,13.61,0,0,1,6.16-4.64,24.7,24.7,0,0,1,9.32-1.62Q66.8,30.6,71.62,34.31ZM52.87,61.67a6.28,6.28,0,0,0,0,9.29,9.28,9.28,0,0,0,5.87,1.62A9.45,9.45,0,0,0,64.64,71a6.21,6.21,0,0,0,0-9.29A9.45,9.45,0,0,0,58.73,60,9.28,9.28,0,0,0,52.87,61.67Zm.86-20.77A5,5,0,0,0,52,45a4.81,4.81,0,0,0,1.76,4,7.86,7.86,0,0,0,5,1.4,7.84,7.84,0,0,0,5-1.4,4.86,4.86,0,0,0,1.73-4,5,5,0,0,0-1.73-4.1,7.7,7.7,0,0,0-5-1.44A7.73,7.73,0,0,0,53.73,40.9Z"/></g><g id="_Group_2" data-name="&lt;Group&gt;"><path class="cls-2" d="M44.47,107.18q-.86,2.68-4.72,6.39l-1.83-1.67A19,19,0,0,0,42.76,106Zm-.2-4.18-1.73,1.83a12.61,12.61,0,0,0-4-3.72L40,99.68A10.22,10.22,0,0,1,44.27,103Zm8.16,12.81q0,6.46-3.34,8.65t-9.41,2.45l-1.09-2.27q4-.24,5.56-.49a8.41,8.41,0,0,0,3.23-1.33,4.86,4.86,0,0,0,2.13-2.51,20.51,20.51,0,0,0,.67-4.49Zm12.4-4.22-1.6,2a17.66,17.66,0,0,1-9.16-5.39,8.84,8.84,0,0,1-3.13,2.75,12.91,12.91,0,0,1-4.46,1.62v0H59v9.67H56.67v-7.42H46v7.42H43.62v-9.67H45l-1-1.33a20.57,20.57,0,0,0,6.32-2.6,8.11,8.11,0,0,0,3-4.2l2.18.5-.41,1.21a11.13,11.13,0,0,0,3.29,3A24.32,24.32,0,0,0,64.83,111.58Zm-2.36-10.1a8.53,8.53,0,0,1-.22,2.59,12.15,12.15,0,0,1-1.67,3.42l-2.1-1.15a7.8,7.8,0,0,0,1.53-2.6H50.95a14.4,14.4,0,0,1-4.56,4.62l-1.59-1.83a12.53,12.53,0,0,0,5.46-7.19l2.07.74q-.14.45-.53,1.41ZM62.37,125l-1.18,2.17a28.11,28.11,0,0,0-9.63-3.65l1.07-2A29.41,29.41,0,0,1,62.37,125Z"/><path class="cls-2" d="M74.32,110.46,72.58,112a9.52,9.52,0,0,0-4.37-4.09l1.65-1.59A11.33,11.33,0,0,1,74.32,110.46Zm.71,4a27.19,27.19,0,0,1-4.71,11.81L68.2,125a20.86,20.86,0,0,0,4.53-11.44Zm.74-10.14-1.83,1.48a8.58,8.58,0,0,0-4.24-4.06l1.67-1.51A10.57,10.57,0,0,1,75.77,104.36ZM95.24,103h-7q-.44,1.61-.62,2.13h5.93V116H88.29v8.37q0,2.72-2.13,2.72h-3l-.8-2.32,2.39.12q1.09,0,1.09-.94v-8h-5.4V105.1H85.2A7.68,7.68,0,0,0,86,103H78.69V115.8a19.83,19.83,0,0,1-3.51,11.4l-2.26-1.33a19.35,19.35,0,0,0,3.41-11.07V100.7H95.24ZM84.58,117.73a18.34,18.34,0,0,1-5,6.81l-2-1.54a12.24,12.24,0,0,0,4.86-6.33Zm6.63-8.6v-1.76h-8.4v1.76Zm0,4.66V111.4h-8.4v2.39Zm4.74,9.48-2.1,1.27a13.26,13.26,0,0,0-4.37-6.84l2.15-1A17.05,17.05,0,0,1,95.95,123.27Z"/></g></g></g></svg>